<svg width="39" height="40" viewBox="0 0 39 40" fill="none" xmlns="http://www.w3.org/2000/svg">
<path fill-rule="evenodd" clip-rule="evenodd" d="M9.76807 0H30.5252L30.8706 0.273438C31.0956 0.453125 31.2321 0.648438 31.2884 0.84375C31.3366 1.01562 31.3687 2.91406 31.3687 10.2344H31.0313C30.8385 10.2344 30.3083 10.2891 29.8424 10.3594C29.3765 10.4219 28.6214 10.6016 28.1555 10.75C27.6896 10.8984 26.9425 11.2188 26.4847 11.4688C26.0348 11.7109 25.352 12.1641 24.9664 12.4609C24.5808 12.7578 24.0266 13.2812 23.7374 13.6094C23.4482 13.9453 23.0144 14.5234 22.7734 14.8984C22.5324 15.2734 22.179 15.9531 21.6568 17.2266L13.9211 17.2656C6.3621 17.3047 6.17734 17.3047 5.92029 17.4609C5.7757 17.5469 5.5829 17.7578 5.50257 17.9297C5.41421 18.1016 5.34192 18.3281 5.34192 18.4375C5.34192 18.5469 5.41421 18.7734 5.50257 18.9453C5.59094 19.1328 5.7757 19.3281 6.26571 19.6016L21.207 19.6094L21.3034 20.6406C21.3516 21.2109 21.4159 21.7422 21.44 21.8125C21.4882 21.9453 21.0865 21.9531 6.26571 21.9609L5.96045 22.1328C5.7757 22.2344 5.59094 22.4297 5.50257 22.6172C5.41421 22.7891 5.34192 23.0156 5.34192 23.125C5.34192 23.2344 5.41421 23.4609 5.50257 23.6328C5.59094 23.8203 5.7757 24.0156 6.26571 24.2891H22.2513L22.661 24.9375C22.8859 25.2969 23.3036 25.8672 23.5848 26.2031C23.8659 26.5469 24.372 27.0547 24.7013 27.3281C25.0307 27.6094 25.5368 27.9844 25.826 28.1641C26.1151 28.3438 26.5811 28.6094 26.8702 28.75C27.1594 28.8906 27.7539 29.1172 28.1957 29.2656C28.6375 29.4062 29.3765 29.5781 29.8424 29.6406C30.3083 29.7109 30.8385 29.7656 31.3687 29.7656V34.3203C31.3687 37.0859 31.3366 38.9844 31.2884 39.1641C31.2321 39.3516 31.0956 39.5469 30.5252 40L0.803296 39.9922L0.546241 39.8047C0.401648 39.6953 0.232956 39.5156 0.168692 39.3984C0.0722966 39.2109 0.0481977 37.6953 0.0401648 29.375C0.0321318 23.9844 0.0321318 17.2969 0.0401648 9.45312L4.49042 9.4375C8.80412 9.41406 8.94871 9.40625 9.1656 9.25781C9.27806 9.17188 9.45479 9 9.55118 8.88281C9.71988 8.66406 9.71988 8.60156 9.74398 4.32812L9.76807 0ZM5.96045 12.7578C5.7757 12.8594 5.59094 13.0547 5.50257 13.2422C5.41421 13.4141 5.34192 13.6484 5.34192 13.75C5.34192 13.8594 5.41421 14.0859 5.50257 14.2578C5.59094 14.4453 5.7757 14.6406 5.96045 14.7422L6.26571 14.9219C16.0659 14.9219 16.4917 14.9141 16.7487 14.7891C16.9013 14.7109 17.1102 14.5312 17.2146 14.375C17.3351 14.1953 17.3994 13.9844 17.3994 13.75C17.3994 13.5156 17.3351 13.3125 17.2146 13.1328C17.1102 12.9922 16.9013 12.8047 16.7487 12.7266C16.4836 12.5859 16.1864 12.5781 11.3666 12.5781L6.26571 12.5859L5.96045 12.7578ZM5.96045 26.8203C5.78373 26.9219 5.59094 27.1172 5.50257 27.3047C5.41421 27.4766 5.34192 27.7031 5.34192 27.8125C5.34192 27.9219 5.41421 28.1484 5.50257 28.3203C5.59897 28.5234 5.76766 28.6953 5.98455 28.8125L6.30587 28.9844C16.2748 28.9453 16.4194 28.9375 16.6363 28.7891C16.7567 28.7031 16.9254 28.5312 17.0218 28.4141C17.1423 28.2578 17.1905 28.0781 17.1905 27.8125C17.1905 27.5547 17.1423 27.3672 17.0299 27.2188C16.9415 27.1094 16.7648 26.9375 16.6443 26.8438C16.4194 26.6797 16.3712 26.6797 11.3425 26.6641L6.26571 26.6406L5.96045 26.8203ZM5.96045 31.5078C5.7757 31.6172 5.59094 31.8125 5.50257 32C5.41421 32.1719 5.34192 32.3984 5.34192 32.5078C5.34192 32.6094 5.41421 32.8438 5.50257 33.0156C5.59897 33.2109 5.76766 33.3906 5.98455 33.5L6.30587 33.6797C16.2748 33.6406 16.4194 33.6328 16.6363 33.4844C16.7567 33.3984 16.9254 33.2266 17.0218 33.1016C17.1423 32.9531 17.1905 32.7734 17.1905 32.5078C17.1905 32.25 17.1423 32.0547 17.0299 31.9141C16.9415 31.7969 16.7648 31.625 16.6443 31.5391C16.4194 31.375 16.3712 31.375 11.3425 31.3516L6.26571 31.3359L5.96045 31.5078ZM31.2482 12.5938C31.6016 12.5859 32.2041 12.6328 32.5977 12.6953C32.9833 12.7578 33.5938 12.9219 33.9633 13.0469C34.3248 13.1797 34.9112 13.4531 35.2647 13.6641C35.6181 13.875 36.1804 14.2891 36.5098 14.5938C36.8391 14.8906 37.297 15.3906 37.5219 15.7109C37.7469 16.0312 38.028 16.4766 38.1485 16.7031C38.261 16.9297 38.4457 17.3672 38.5502 17.6797C38.6626 17.9922 38.8072 18.5703 38.8715 18.9688C38.9438 19.3672 39 19.8281 39 20C39 20.1719 38.9438 20.6406 38.8715 21.0391C38.8072 21.4375 38.6626 22.0156 38.5502 22.3281C38.4457 22.6406 38.261 23.0781 38.1485 23.3047C38.028 23.5312 37.7469 23.9766 37.5219 24.2891C37.297 24.6094 36.8391 25.1172 36.5098 25.4141C36.1804 25.7109 35.6181 26.1328 35.2647 26.3359C34.9112 26.5469 34.3248 26.8281 33.9633 26.9531C33.5938 27.0859 32.9833 27.2422 32.5977 27.3047C32.2041 27.375 31.6418 27.4219 31.3285 27.4219C31.0233 27.4219 30.4529 27.375 30.0674 27.3047C29.6737 27.2422 29.0954 27.1016 28.7821 26.9922C28.4608 26.8828 27.9627 26.6641 27.6735 26.5156C27.3843 26.3594 26.9506 26.0859 26.7096 25.8984C26.4686 25.7188 26.0509 25.3438 25.7778 25.0703C25.5046 24.7969 25.1191 24.3281 24.9182 24.0234C24.7174 23.7266 24.4443 23.2266 24.3077 22.9141C24.1712 22.6016 23.9784 22.0391 23.89 21.6641C23.7615 21.1484 23.7133 20.7344 23.7133 20C23.7133 19.2656 23.7615 18.8516 23.89 18.3438C23.9784 17.9688 24.1712 17.4062 24.3077 17.0938C24.4443 16.7812 24.7415 16.2422 24.9825 15.8984C25.2154 15.5547 25.6974 15 26.0589 14.6719C26.4204 14.3359 26.9184 13.9375 27.1755 13.7734C27.4245 13.6172 27.8904 13.375 28.1957 13.2344C28.509 13.0938 29.0632 12.9063 29.4408 12.8203C29.8183 12.7344 30.236 12.6562 30.3646 12.6328C30.5011 12.6172 30.8947 12.5938 31.2482 12.5938ZM32.1318 18.9766C31.2964 19.7969 30.5734 20.4688 30.5252 20.4688C30.4851 20.4688 30.0674 20.1016 29.6014 19.6484C28.9186 18.9844 28.6937 18.8125 28.4367 18.7578C28.2519 18.7188 28.0029 18.7188 27.8583 18.7578C27.7137 18.7969 27.4888 18.9141 27.3522 19.0234C27.2076 19.1406 27.0711 19.3516 27.0148 19.5547C26.9506 19.8125 26.9506 19.9531 27.0229 20.1953C27.1032 20.4375 27.4406 20.8125 28.4688 21.8203C29.5211 22.8516 29.8826 23.1563 30.1637 23.2578C30.469 23.3672 30.5734 23.3672 30.8465 23.2891C31.1036 23.2109 31.5936 22.7812 33.2805 21.1484C34.4453 20.0234 35.4494 19.0078 35.5137 18.8906C35.578 18.7734 35.6262 18.5 35.6262 18.2812C35.6262 17.9688 35.586 17.8438 35.4093 17.6484C35.2807 17.5156 35.088 17.3516 34.9675 17.2969C34.8389 17.2344 34.606 17.1875 34.4453 17.1875C34.2766 17.1875 34.0356 17.2578 33.8991 17.3359C33.7705 17.4219 32.9753 18.1562 32.1318 18.9766ZM7.28589 0.125C7.33409 0.15625 7.36622 1.45312 7.35015 7.10938H0L3.6068 3.60156C5.59094 1.67187 7.24573 0.109375 7.28589 0.125Z" fill="#235154"/>
</svg>
