<svg width="38" height="29" viewBox="0 0 38 29" fill="none" xmlns="http://www.w3.org/2000/svg">
<path fill-rule="evenodd" clip-rule="evenodd" d="M6.79102 0.5H31.209L31.6023 0.719035C31.8102 0.843155 32.0551 1.04759 32.1441 1.17901C32.2258 1.30313 33.1758 3.42047 36.1965 10.3201L36.523 10.3639C36.7012 10.3931 36.9535 10.4588 37.0723 10.5172C37.191 10.5829 37.4137 10.7581 37.5547 10.9188C37.6957 11.0794 37.859 11.3422 37.9035 11.4956C37.9777 11.7073 38 13.0872 38 17.1102C38 22.3159 37.9926 22.4473 37.8441 22.7686C37.7625 22.9511 37.6215 23.1774 37.5324 23.2724C37.4434 23.3673 37.1984 23.5206 36.998 23.6155C36.7234 23.7469 36.4934 23.7907 35.625 23.7907L35.5879 27.4924L35.3801 27.7918C35.2687 27.9597 35.0387 28.186 34.5488 28.5H29.2793L28.9602 28.2956C28.7895 28.1861 28.5594 27.9597 28.2402 27.4778L28.2031 23.7907H9.79688L9.75977 27.4778L9.55937 27.7699C9.45547 27.9305 9.21797 28.1641 8.7207 28.5H3.45117L3.13203 28.2956C2.96133 28.1861 2.73125 27.9597 2.41211 27.4924L2.375 23.7907H1.87031C1.52891 23.7907 1.26914 23.7396 1.03906 23.6374C0.853516 23.5571 0.623437 23.4184 0.526953 23.3308C0.430469 23.2432 0.274609 23.0022 0 22.44V17.1102C0 13.0872 0.0222656 11.7073 0.0964844 11.4956C0.141016 11.3422 0.304297 11.0794 0.445312 10.9188C0.586328 10.7581 0.801562 10.5829 0.927734 10.5172C1.04648 10.4588 1.29883 10.3931 1.80352 10.3201L3.75547 5.86636C4.82422 3.42047 5.77422 1.30313 5.85586 1.17171C5.94492 1.04759 6.18984 0.843155 6.39766 0.719035L6.79102 0.5ZM8.29023 3.98266C8.23086 4.09948 7.6 5.53051 6.88008 7.18057C6.16016 8.82334 5.57383 10.2179 5.57383 10.2617C5.57383 10.3347 8.30508 10.3566 19 10.3566C29.7023 10.3566 32.4336 10.3347 32.4336 10.2617C32.4336 10.2179 31.8102 8.74302 31.0457 6.99804L29.6504 3.82203L8.39414 3.78553L8.29023 3.98266ZM5.75195 14.2189C5.55156 14.3284 5.23242 14.5694 5.04688 14.7446C4.86875 14.9198 4.63125 15.2119 4.52734 15.3944C4.42344 15.5696 4.275 15.8982 4.20078 16.1172C4.11172 16.3801 4.06719 16.7305 4.06719 17.1029C4.07461 17.4898 4.11914 17.8184 4.21562 18.052C4.28984 18.2565 4.43828 18.5704 4.54219 18.7456C4.64609 18.9282 4.90586 19.2348 5.11367 19.4246C5.32148 19.6145 5.72227 19.8773 5.99688 20.0014C6.27148 20.1329 6.69453 20.257 6.93945 20.2862C7.18437 20.3154 7.57031 20.3081 7.79297 20.2789C8.02305 20.2497 8.33477 20.1767 8.49805 20.1183C8.66133 20.0598 8.95078 19.9211 9.12891 19.8043C9.31445 19.6875 9.61133 19.4465 9.79688 19.264C9.975 19.0815 10.2125 18.731 10.3313 18.4901C10.45 18.2492 10.5762 17.8257 10.6207 17.5409C10.6801 17.1832 10.6801 16.8984 10.6207 16.5553C10.5762 16.2997 10.4426 15.8763 10.3164 15.628C10.1902 15.3652 9.92305 15.0001 9.68555 14.7665C9.45547 14.5402 9.08438 14.2773 8.81719 14.1459C8.56484 14.0291 8.14922 13.8977 7.9043 13.8538C7.65938 13.8173 7.37734 13.7881 7.27344 13.7881C7.17695 13.7954 6.87266 13.8392 6.60547 13.8977C6.3457 13.9561 5.95977 14.1021 5.75195 14.2189ZM29.6875 13.9415C29.5094 13.9853 29.1902 14.1167 28.9824 14.2262C28.782 14.3357 28.448 14.5913 28.2551 14.7811C28.0324 15.0001 27.7875 15.3433 27.6242 15.6791C27.3941 16.161 27.357 16.3143 27.3273 16.8838C27.3125 17.2781 27.3422 17.6797 27.3941 17.8695C27.4461 18.052 27.5871 18.3952 27.7133 18.6288C27.8395 18.8625 28.1215 19.2202 28.3367 19.4173C28.552 19.6072 28.9527 19.8773 29.2273 20.0014C29.502 20.1329 29.925 20.257 30.1699 20.2862C30.4148 20.3154 30.8008 20.3081 31.0234 20.2789C31.2535 20.2424 31.5504 20.184 31.6914 20.1402C31.8398 20.1037 32.1516 19.943 32.3965 19.7824C32.6414 19.6218 32.968 19.3516 33.1164 19.1764C33.2648 19.0012 33.4727 18.6799 33.5766 18.4536C33.6805 18.2346 33.7992 17.8768 33.8438 17.6505C33.8883 17.4314 33.9254 17.1394 33.918 16.9934C33.918 16.8546 33.866 16.5261 33.7992 16.2632C33.725 16.0077 33.5914 15.6426 33.4875 15.4601C33.3836 15.2849 33.1164 14.9636 32.9012 14.7519C32.6859 14.5402 32.3074 14.27 32.0477 14.1459C31.7953 14.0291 31.3797 13.8977 31.1348 13.8538C30.8898 13.8173 30.6227 13.7881 30.541 13.7954C30.4594 13.8027 30.3109 13.8173 30.207 13.8319C30.1105 13.8465 29.873 13.8977 29.6875 13.9415Z" fill="#235154"/>
</svg>
