<svg width="38" height="35" viewBox="0 0 38 35" fill="none" xmlns="http://www.w3.org/2000/svg">
<path fill-rule="evenodd" clip-rule="evenodd" d="M0.934791 0H37.0652L37.3545 0.182996C37.54 0.294385 37.7107 0.485338 38 1.07411L37.9555 30.2819L37.77 30.5763C37.6661 30.7354 37.4658 30.9343 37.3249 31.0218C37.08 31.173 36.9317 31.181 30.7962 31.1889V25.699L31.2487 25.1978C31.501 24.9273 31.8422 24.4897 32.0055 24.2271C32.1761 23.9645 32.4358 23.4792 32.5916 23.153C32.7399 22.8268 32.9477 22.2141 33.0515 21.8004C33.148 21.3867 33.2519 20.7422 33.2815 20.3683C33.3112 19.9545 33.2964 19.3976 33.2444 18.9361C33.1925 18.5224 33.0738 17.8938 32.9699 17.5438C32.8661 17.1937 32.6435 16.6208 32.4729 16.2707C32.3022 15.9207 32.0129 15.4194 31.82 15.1569C31.6345 14.8943 31.2858 14.4806 31.0484 14.2339C30.8036 13.9952 30.3955 13.6372 30.1285 13.4462C29.8614 13.2553 29.4162 12.9848 29.1269 12.8416C28.8376 12.6983 28.3553 12.5074 28.0512 12.4199C27.747 12.3244 27.1905 12.213 26.827 12.1653C26.3522 12.1096 25.9367 12.1096 25.3803 12.1732C24.95 12.2289 24.3342 12.3562 24.0078 12.4676C23.6814 12.579 23.1843 12.7938 22.895 12.945C22.6056 13.1041 22.1753 13.3746 21.9305 13.5656C21.6857 13.7486 21.2331 14.1862 20.9289 14.5283C20.6173 14.8784 20.1945 15.4592 19.9793 15.8331C19.7642 16.2071 19.4971 16.7959 19.3784 17.1459C19.2597 17.496 19.1039 18.1007 19.0371 18.4985C18.9406 19.0316 18.9184 19.4533 18.9481 20.1694C18.9703 20.782 19.0445 21.3549 19.1484 21.7606C19.2374 22.1107 19.4303 22.6836 19.5861 23.0336C19.7345 23.3837 19.9941 23.885 20.1648 24.1475C20.328 24.4101 20.6693 24.8636 21.3741 25.699V31.1889H11.1507C1.06091 31.181 0.934791 31.1809 0.675127 31.0218C0.534166 30.9343 0.333854 30.7354 0.0445139 30.2819L0 1.07411L0.178055 0.716072C0.28934 0.485338 0.459977 0.294385 0.645451 0.182996L0.934791 0ZM4.81492 7.97227C4.74073 8.11548 4.68137 8.3303 4.68137 8.44965C4.68137 8.56899 4.72589 8.7679 4.78524 8.88725C4.84459 9.00659 4.97813 9.19755 5.08942 9.30098L5.28231 9.49989C17.7239 9.53967 21.4112 9.53171 21.5002 9.50784C21.5966 9.48397 21.7673 9.37258 21.8934 9.2612C22.0195 9.14981 22.1456 8.93499 22.1902 8.7679C22.2347 8.58491 22.2347 8.36213 22.1902 8.18709C22.1531 8.03592 22.0047 7.79723 21.8563 7.65401L21.5966 7.39145C5.51972 7.39145 5.37876 7.39941 5.16361 7.55058C5.03749 7.6381 4.88169 7.82905 4.81492 7.97227ZM4.86685 14.9818C4.76298 15.133 4.71847 15.3239 4.71847 15.5865C4.71847 15.857 4.76298 16.048 4.86685 16.1991C4.95588 16.3264 5.14135 16.4856 5.27489 16.5651C5.5123 16.6924 5.89809 16.7004 10.1343 16.7004C14.3631 16.7004 14.7563 16.6924 14.9938 16.5651C15.1347 16.4856 15.3276 16.3026 15.4241 16.1434C15.5576 15.9286 15.5947 15.7854 15.5724 15.499C15.5576 15.2364 15.4908 15.0614 15.3647 14.9102C15.2608 14.7988 15.0828 14.6476 14.9715 14.584C14.8083 14.4965 13.9699 14.4726 10.1492 14.4726C5.89809 14.4726 5.5123 14.4885 5.27489 14.6158C5.14135 14.6874 4.95588 14.8545 4.86685 14.9818ZM4.81492 22.2141C4.74073 22.3574 4.68137 22.5722 4.68137 22.6915C4.68137 22.8109 4.72589 23.0098 4.78524 23.1291C4.84459 23.2485 4.97813 23.4394 5.08942 23.5429L5.28231 23.7418C12.0855 23.7815 12.6494 23.7656 12.8422 23.6622C12.961 23.5985 13.1316 23.4315 13.2132 23.2882C13.2948 23.145 13.3616 22.8904 13.3616 22.7313C13.3616 22.5642 13.3096 22.3255 13.2503 22.1903C13.1909 22.063 13.0277 21.88 12.8942 21.7925C12.6642 21.6413 12.5232 21.6333 9.02148 21.6333C5.5123 21.6333 5.37876 21.6413 5.16361 21.7925C5.03749 21.88 4.88169 22.0709 4.81492 22.2141ZM26.0258 14.3214C26.3225 14.3214 26.827 14.3692 27.1386 14.4408C27.4873 14.5124 27.9992 14.7113 28.4221 14.9341C28.9934 15.2364 29.2382 15.4194 29.7278 15.9445C30.2101 16.4617 30.3881 16.7243 30.67 17.3369C30.8629 17.7586 31.0707 18.3474 31.13 18.6497C31.1894 18.96 31.2413 19.4931 31.2413 19.8431C31.2413 20.225 31.182 20.7343 31.0929 21.1162C31.0113 21.4662 30.8333 21.9914 30.7071 22.2698C30.5736 22.5563 30.3065 23.0018 30.1062 23.2644C29.9059 23.5269 29.572 23.9009 29.3643 24.0839C29.1492 24.2748 28.7114 24.5692 28.385 24.7443C28.0586 24.9113 27.5763 25.1182 27.3093 25.1819C27.0422 25.2535 26.5228 25.3171 26.1593 25.3171C25.7884 25.3171 25.2913 25.2694 25.0465 25.2137C24.8016 25.158 24.401 25.0227 24.1562 24.9193C23.9114 24.8079 23.5256 24.5931 23.303 24.434C23.0804 24.2828 22.7317 23.9884 22.5314 23.7895C22.3385 23.5906 22.0344 23.1928 21.8563 22.9063C21.6857 22.6279 21.4779 22.2141 21.3889 21.9914C21.3073 21.7765 21.1812 21.3787 21.1144 21.1162C21.0476 20.8377 21.0031 20.3205 21.0031 19.8431C21.0031 19.4055 21.0551 18.8168 21.1144 18.5303C21.1812 18.2519 21.3667 17.7108 21.5373 17.3369C21.7821 16.8038 21.9824 16.5174 22.4795 15.9764C23.0137 15.4035 23.2288 15.2285 23.8223 14.9182C24.2081 14.7193 24.7423 14.5044 25.0094 14.4408C25.2765 14.3771 25.729 14.3294 26.0258 14.3214ZM23.4885 27.0436C23.5107 27.0436 23.8149 27.1391 24.171 27.2585C24.7571 27.4494 24.9426 27.4733 26.048 27.4733C27.0941 27.4812 27.3538 27.4574 27.8657 27.3062C28.1921 27.2107 28.5334 27.1153 28.793 27.0436V30.807C28.793 34.4669 28.793 34.5704 28.6447 34.7852C28.5482 34.9204 28.4221 35 28.3108 35C28.2069 35 27.7173 34.7852 27.2128 34.5226C26.7157 34.2601 26.2261 34.0452 26.1222 34.0452C26.0184 34.0452 25.5287 34.2601 25.0242 34.5226C24.5271 34.7852 24.0152 35 23.8965 35C23.7481 35 23.6369 34.9417 23.5627 34.825C23.4662 34.6738 23.4514 34.1009 23.4514 30.8468C23.4514 28.7543 23.4662 27.0436 23.4885 27.0436Z" fill="#235154"/>
</svg>
