<svg width="18" height="19" viewBox="0 0 18 19" fill="none" xmlns="http://www.w3.org/2000/svg">
<path d="M6.56975 11.0974C6.63658 11.0363 8.70106 9.18595 11.1524 6.99269L15.612 3L15.8159 3.2105C15.9285 3.32593 16.4666 3.88613 18 5.49203L17.8664 5.61426C17.796 5.68216 15.2427 7.9637 12.197 10.6866C9.15123 13.4095 6.56975 15.7182 6.27081 16L3.24619 12.89L3.08315 12.722C1.49135 11.0814 0.166673 9.71614 0 9.53225L1.25557 8.39828C1.9449 7.77357 2.52521 7.25751 2.54279 7.25072C2.56038 7.24393 3.44666 8.13346 6.44666 11.2162L6.56975 11.0974Z" fill="#235154"/>
</svg>
