<svg width="14" height="16" viewBox="0 0 14 16" fill="none" xmlns="http://www.w3.org/2000/svg">
<path d="M6.29688 0.815197C6.36562 0.741521 6.5 0.641055 6.59375 0.590822C6.72813 0.520496 6.8125 0.500403 6.99375 0.500403C7.17188 0.497054 7.25313 0.513798 7.38438 0.580776C7.47188 0.62766 7.59688 0.708033 7.65625 0.758266C7.71562 0.811848 7.81563 0.9525 7.98438 1.28404L8 7.99853H9.11563C10.1375 7.99853 10.2437 8.00522 10.3281 8.05881C10.3781 8.0923 10.4406 8.17267 10.4656 8.2363C10.4969 8.31667 10.5031 8.3803 10.4812 8.46067C10.4594 8.54104 10.0125 9.04338 8.71875 10.4265C7.76562 11.4479 6.98438 12.2784 6.98438 12.275C6.98438 12.2683 6.2 11.4211 5.24375 10.393C3.65938 8.68839 3.5 8.50756 3.5 8.41044C3.5 8.35016 3.52187 8.25304 3.54688 8.19946C3.57188 8.14588 3.63438 8.07555 3.6875 8.04876C3.76562 8.00857 3.96563 7.99853 6 7.99853L6.01562 1.28404L6.09375 1.1166C6.13438 1.02618 6.22813 0.888872 6.29688 0.815197Z" fill="#5C6669"/>
<path d="M0.053125 14.7733C0.00625 14.6293 0 14.4619 0 13.1792V11.7493H1.5V13.8925H12.5V11.7493H14L13.9844 14.713L13.875 14.9273C13.8156 15.0446 13.7219 15.1785 13.6719 15.2254C13.6219 15.2689 13.4969 15.3493 13.2188 15.5H0.765625L0.546875 15.3727C0.401042 15.2879 0.291667 15.1941 0.21875 15.0914C0.159375 15.0044 0.084375 14.8637 0.053125 14.7733Z" fill="#5C6669"/>
</svg>
