<svg width="194" height="100" viewBox="0 0 194 100" fill="none" xmlns="http://www.w3.org/2000/svg">
<path d="M106.685 88.4538C108.426 87.783 111.268 86.4719 113.04 85.5876C114.812 84.6729 116.431 83.9411 116.645 83.9107C116.889 83.8802 116.92 84.0326 116.736 84.3985C116.583 84.7034 114.781 86.5634 112.703 88.5757C110.626 90.5576 107.815 92.9054 106.471 93.7897C105.127 94.6739 103.202 95.7411 102.194 96.168C101.186 96.5643 99.6887 97.1437 98.8333 97.3876C98.0084 97.662 96.0531 98.1194 94.5561 98.4243C92.6619 98.7597 90.2178 98.9426 86.7655 98.9426C83.6493 98.9731 80.8997 98.8207 79.586 98.5462C78.3945 98.3023 76.2865 97.723 74.8506 97.2046C73.4147 96.7168 71.5816 95.985 70.7262 95.5581C69.5347 94.9788 69.2903 94.7349 69.6569 94.5215C69.9013 94.369 72.5287 94.247 75.4616 94.247C78.3945 94.247 82.6717 94.0336 84.9325 93.7897C87.1932 93.5153 90.7677 92.9664 92.8758 92.5395C94.9838 92.1127 98.2528 91.2894 100.147 90.7101C102.011 90.1308 104.974 89.1246 106.685 88.4538Z" fill="#215054"/>
<path d="M117.011 38.7538C116.338 37.4122 115.789 36.2231 115.789 36.1011V36.0706C115.789 35.9486 116.125 36.1926 116.583 36.6194C117.011 37.0463 118.049 38.3269 118.844 39.5161C119.638 40.6747 120.707 42.4737 121.227 43.4799C121.746 44.4861 122.388 46.1936 122.693 47.2912C123.029 48.6328 123.212 50.4013 123.212 52.7796C123.182 55.3713 123.029 56.9263 122.54 58.7253C122.174 60.0669 121.502 61.9878 121.013 62.994C120.555 64.0002 119.485 65.7077 118.66 66.7748C117.805 67.903 116.094 69.519 114.689 70.5862C113.314 71.6229 110.961 73.0864 109.495 73.8792C107.998 74.6719 105.462 75.7696 103.874 76.3489C102.285 76.9588 99.8103 77.721 98.3743 78.0869C96.9384 78.4528 94.0666 79.0016 91.9586 79.3065C89.8506 79.6115 84.9013 80.0383 80.9602 80.2518C76.3469 80.4652 70.2673 80.5567 64.0043 80.4042C58.6273 80.3127 54.1668 80.1603 54.0751 80.0688C53.9835 79.9773 55.511 76.0745 60.9491 62.7805L68.4342 62.994C73.0169 63.1159 78.2411 63.0854 81.8767 62.872C85.1457 62.6891 89.484 62.3232 91.5003 62.0488C93.5167 61.8048 96.7551 61.256 98.6799 60.7986C100.605 60.3718 103.507 59.5485 105.096 58.9692C106.684 58.3899 109.098 57.3532 110.442 56.6519C111.786 55.9506 113.68 54.609 114.689 53.6943C115.88 52.5966 116.797 51.377 117.347 50.1878C117.835 49.1816 118.385 47.5961 118.569 46.6814C118.844 45.4313 118.844 44.5166 118.569 43.0835C118.385 42.0468 117.683 40.0954 117.011 38.7538Z" fill="#215054"/>
<path d="M102.041 31.1311C101.858 31.1311 101.736 30.9786 101.736 30.8262C101.736 30.6433 102.316 30.8872 103.049 31.314C103.752 31.7714 104.607 32.3507 104.913 32.6252C105.218 32.8996 105.891 33.7228 106.379 34.4851C107.052 35.5218 107.235 36.2231 107.235 37.3817C107.235 38.205 106.96 39.4551 106.685 40.1259C106.379 40.7967 105.524 41.8639 104.76 42.5042C104.027 43.1445 102.377 44.0592 101.125 44.5471C99.872 45.0044 97.4585 45.6752 95.7782 46.0411C94.0978 46.3765 91.0122 46.8643 88.9041 47.1693C86.2462 47.5351 82.9161 47.7181 77.9974 47.7181C74.1174 47.7486 70.8484 47.6876 70.7567 47.5961C70.6651 47.5047 71.6427 44.9739 75.3394 36.467L81.7552 36.5585C85.2686 36.6194 89.6374 36.528 91.501 36.3145C93.3646 36.1316 95.9004 35.7657 97.153 35.4913C98.4056 35.2474 100.086 34.6985 100.88 34.3021C101.705 33.9058 102.469 33.2959 102.652 32.9606C102.856 32.554 102.856 32.1475 102.652 31.7409C102.469 31.4055 102.224 31.1311 102.041 31.1311Z" fill="#215054"/>
<path fill-rule="evenodd" clip-rule="evenodd" d="M16.1921 31.8934C24.3798 31.9239 25.4186 32.0153 27.6488 32.5947C28.9931 32.9605 31.0706 33.7533 32.2315 34.3326C33.3924 34.912 35.0422 36.0401 35.8671 36.8329C36.692 37.6256 37.7613 38.9063 38.2501 39.6685C38.7389 40.4308 39.4416 42.0163 39.7776 43.175C40.2665 44.73 40.4498 46.1021 40.4498 48.2059C40.4498 49.7915 40.2665 51.8648 40.0526 52.7796C39.8082 53.6943 39.2277 55.2798 38.7083 56.286C38.189 57.3532 37.028 58.8777 35.9282 59.9449C34.6756 61.1645 33.2702 62.1707 29.1764 64.1526L31.4677 64.8234C32.7203 65.1893 34.3395 65.7686 35.0728 66.1345C35.7754 66.5004 37.2113 67.5981 38.2806 68.6043C39.5434 69.7833 40.4905 71.0232 41.1219 72.3242C41.6718 73.3913 42.2828 75.0378 42.4967 75.9526C42.7411 76.8673 42.8939 78.9407 42.8939 80.5262C42.8939 82.1727 42.6494 84.3375 42.3439 85.5572C42.069 86.7463 41.458 88.4233 40.9997 89.3075C40.5414 90.1613 39.7165 91.4724 39.1361 92.2042C38.5556 92.9054 37.4557 94.0031 36.692 94.6434C35.9282 95.2532 34.4006 96.2594 33.3008 96.8083C32.2009 97.3876 30.154 98.2108 28.7181 98.6072C27.2822 99.0341 24.5937 99.5219 22.7606 99.7354C20.3165 100.01 16.8031 100.071 9.92913 99.9183C4.70488 99.7964 0.366614 99.6439 0.213858 99.5524C0.0916535 99.4914 0 84.2765 0 32.0458L3.60504 31.9544C5.56031 31.8934 11.2428 31.8629 16.1921 31.8934ZM8.55433 39.9734V61.317C19.7055 61.317 22.3329 61.195 23.3717 60.9206C24.1965 60.6767 25.5713 60.1888 26.3657 59.762C27.1906 59.3656 28.4126 58.4813 29.0847 57.8105C29.7874 57.1397 30.7039 55.8286 31.1317 54.9139C31.8343 53.4504 31.926 52.8405 31.926 50.1878C31.926 47.5351 31.8038 46.9253 31.1011 45.4618C30.6734 44.5166 29.7263 43.2664 28.9931 42.6261C28.2598 41.9858 26.9156 41.1931 26.0296 40.8882C25.1742 40.5528 23.5855 40.1564 22.5162 39.9734C21.4775 39.821 18.9112 39.699 16.8031 39.7295C14.6951 39.76 11.9761 39.821 10.754 39.882L8.55433 39.9734ZM8.55433 80.2213C8.55433 90.7101 8.61543 91.5029 9.10425 91.6553C9.40976 91.7468 12.526 91.8078 16.0394 91.8383C19.5833 91.8383 23.1578 91.7163 23.9827 91.5638C24.8381 91.3809 26.3351 90.9235 27.3433 90.5576C28.382 90.1613 29.7568 89.4295 30.3984 88.9111C31.0706 88.3928 32.0787 87.2951 32.6592 86.4719C33.2091 85.6181 33.8202 84.3985 34.0035 83.7277C34.2173 83.0569 34.3701 81.258 34.3701 79.7639C34.3701 77.4161 34.2784 76.7758 33.5757 75.3427C33.1175 74.428 32.2315 73.2084 31.5899 72.6291C30.9483 72.0497 29.6041 71.196 28.5654 70.7081C27.5572 70.2203 25.5102 69.641 23.9827 69.397C22.1802 69.0921 19.0639 68.9397 14.909 68.9397H8.55433V80.2213Z" fill="#215054"/>
<path fill-rule="evenodd" clip-rule="evenodd" d="M144.874 32.0458H184.835V91.8078H194V99.7354L125.718 99.5829L125.565 91.8078H133.05L133.845 90.5272C134.273 89.7954 135.128 88.1184 135.739 86.7768C136.35 85.4352 137.45 82.4776 138.214 80.2213C138.947 77.965 139.924 74.7329 140.352 73.056C140.78 71.379 141.391 68.4214 141.727 66.5004C142.063 64.5795 142.582 61.2255 142.827 59.0302C143.102 56.8349 143.499 52.5357 143.743 49.4256C143.957 46.3155 144.263 41.6504 144.354 39.0587C144.446 36.467 144.599 33.8143 144.69 33.174L144.874 32.0458ZM152.481 46.1021C152.298 49.0292 151.931 53.6028 151.687 56.3165C151.442 58.9997 151.015 62.5366 150.77 64.2136C150.526 65.9211 150.098 68.3909 149.854 69.7325C149.579 71.0436 148.968 73.7267 148.479 75.6477C148.021 77.5991 147.135 80.6177 146.585 82.3861C146.004 84.1241 145.088 86.5939 144.538 87.844C143.988 89.1246 143.285 90.5272 142.949 90.9845L142.399 91.8383H176.311V39.9734C155.658 39.9734 153.031 40.0649 152.939 40.3698C152.878 40.5833 152.664 43.1445 152.481 46.0716V46.1021Z" fill="#215054"/>
<path d="M13 0.1875V15.1875H9.96203V2.60852H4.03797V15.1875H1V0.1875H13Z" fill="#215054"/>
<path d="M39.8163 0V2.42102H32.4286V0H39.8163ZM42 0V15H38.9388V0H42ZM32.0408 0H35.0918L34.7143 7.53091C34.6599 8.65728 34.5544 9.63599 34.398 10.467C34.2483 11.2981 34.0442 12.0055 33.7857 12.5893C33.5272 13.1662 33.2075 13.6332 32.8265 13.9904C32.4524 14.3407 32.0102 14.5982 31.5 14.7631C30.9898 14.921 30.4082 15 29.7551 15H29V12.5893L29.3878 12.5584C29.7211 12.524 30.0136 12.4348 30.2653 12.2905C30.517 12.1463 30.7313 11.9299 30.9082 11.6415C31.0918 11.353 31.2415 10.9856 31.3571 10.5391C31.4796 10.0859 31.5748 9.53297 31.6429 8.8805C31.7177 8.22802 31.7687 7.46566 31.7959 6.59341L32.0408 0Z" fill="#215054"/>
<path d="M66.3387 2.56525L62.2742 15H59L64.5528 0H66.6364L66.3387 2.56525ZM69.7155 15L65.6408 2.56525L65.3123 0H67.4164L73 15H69.7155ZM69.5308 9.41621V11.8372H61.6378V9.41621H69.5308Z" fill="#215054"/>
<path d="M176.339 2.56525L172.274 15H169L174.553 0H176.636L176.339 2.56525ZM179.716 15L175.641 2.56525L175.312 0H177.416L183 15H179.716ZM179.531 9.41621V11.8372H171.638V9.41621H179.531Z" fill="#215054"/>
<path d="M98.8329 6.1092V8.51992H91.1367V6.1092H98.8329ZM92.038 0V15H89V0H92.038ZM101 0V15H97.9722V0H101Z" fill="#215054"/>
<path d="M129 12.5893V15H121.068V12.5893H129ZM122.071 0V15H119V0H122.071ZM127.966 6.1092V8.45811H121.068V6.1092H127.966ZM128.99 0V2.42102H121.068V0H128.99Z" fill="#215054"/>
<path d="M151.475 0V15H148.455V0H151.475ZM156 0V2.42102H144V0H156Z" fill="#215054"/>
</svg>
