<svg width="36" height="36" viewBox="0 0 36 36" fill="none" xmlns="http://www.w3.org/2000/svg">
<path fill-rule="evenodd" clip-rule="evenodd" d="M13.7246 0C14.9654 0 16.3895 0.032 16.8975 0.08C17.4055 0.12 18.3216 0.192 18.9379 0.24C19.5542 0.296 20.5618 0.4 21.1615 0.488C21.7694 0.568 22.6355 0.712 23.0769 0.808C23.5266 0.904 24.1929 1.064 24.5593 1.176C24.9257 1.288 25.542 1.528 25.9251 1.704C26.3165 1.888 26.8078 2.2 27.0244 2.4C27.2409 2.6 27.4991 2.92 27.5907 3.12C27.7572 3.464 27.7656 3.632 27.7656 10L27.116 10.248C26.7662 10.392 26.3248 10.552 26.1416 10.616C25.9584 10.68 25.3171 10.848 24.7258 11C24.1346 11.152 23.1185 11.368 22.4773 11.48C21.836 11.592 20.7117 11.752 19.9789 11.84C19.246 11.92 17.9302 12.032 17.0641 12.088C16.0564 12.144 14.5324 12.168 12.8584 12.136C11.4177 12.112 9.65216 12.032 8.94428 11.96C8.2364 11.896 7.14543 11.76 6.52916 11.672C5.91288 11.584 4.88021 11.4 4.23895 11.264C3.5977 11.136 2.65663 10.896 2.15695 10.744C1.64894 10.592 0.966049 10.36 0.033312 10V3.48L0.258168 3.04C0.408072 2.76 0.641256 2.496 0.907753 2.296C1.13261 2.12 1.58232 1.856 1.90711 1.704C2.22358 1.544 2.80654 1.32 3.19795 1.2C3.58937 1.08 4.3722 0.88 4.94684 0.768C5.52147 0.656 6.5708 0.496 7.27868 0.408C7.98656 0.32 9.20245 0.208 9.98528 0.152C10.7598 0.104 11.4177 0.048 11.4344 0.032C11.451 0.016 12.4837 0 13.7246 0V0ZM26.3082 17.608C26.6746 17.608 27.2742 17.632 27.6406 17.68C28.0071 17.72 28.6483 17.848 29.0564 17.96C29.4645 18.072 30.214 18.36 30.722 18.6C31.23 18.84 31.8796 19.208 32.1794 19.424C32.4792 19.648 33.0122 20.112 33.3703 20.472C33.7201 20.824 34.2281 21.432 34.4863 21.824C34.7528 22.208 35.0859 22.808 35.2441 23.16C35.4024 23.512 35.6189 24.144 35.7355 24.56C35.877 25.08 35.952 25.64 35.9853 26.32C36.0186 26.944 35.9936 27.576 35.927 28C35.877 28.376 35.7355 28.984 35.6272 29.36C35.5106 29.736 35.2608 30.368 35.0609 30.76C34.861 31.16 34.4613 31.784 34.1698 32.16C33.8867 32.536 33.3786 33.088 33.0622 33.392C32.7374 33.688 32.1711 34.128 31.8046 34.36C31.4382 34.592 30.9469 34.872 30.722 34.984C30.4888 35.088 29.9642 35.296 29.5561 35.432C29.148 35.576 28.3735 35.76 27.8488 35.848C27.3242 35.928 26.6996 36 26.4747 36C26.2415 36 25.6086 35.928 25.059 35.84C24.5093 35.744 23.7848 35.584 23.4517 35.48C23.1269 35.368 22.5273 35.12 22.1275 34.928C21.7194 34.736 21.0948 34.368 20.7284 34.104C20.362 33.84 19.8373 33.392 19.5625 33.112C19.2877 32.832 18.8879 32.368 18.6797 32.08C18.4632 31.792 18.1551 31.328 17.9968 31.04C17.8386 30.752 17.5887 30.216 17.4555 29.84C17.3139 29.464 17.139 28.84 17.0641 28.44C16.9725 28 16.9142 27.344 16.9142 26.76C16.9142 26.208 16.9725 25.512 17.0474 25.12C17.1224 24.744 17.2806 24.168 17.3972 23.84C17.5138 23.512 17.7636 22.952 17.9468 22.6C18.1384 22.248 18.4632 21.728 18.6714 21.44C18.8879 21.152 19.3626 20.632 19.729 20.28C20.0955 19.928 20.7367 19.424 21.1448 19.16C21.5529 18.896 22.2191 18.544 22.6272 18.384C23.0269 18.216 23.6432 18.008 24.0013 17.92C24.3511 17.832 24.8674 17.728 25.1422 17.688C25.4171 17.648 25.9417 17.616 26.3082 17.608ZM25.5586 22.696C25.3754 22.832 24.7175 23.44 24.0929 24.056C23.4683 24.664 22.9187 25.24 22.8687 25.344C22.8104 25.44 22.7604 25.688 22.7521 25.904C22.7438 26.144 22.8021 26.376 22.902 26.552C22.9853 26.704 23.1685 26.896 23.2934 26.992C23.4766 27.12 23.6515 27.16 24.043 27.16C24.4427 27.16 24.6176 27.12 24.8341 26.984L25.1006 26.8C25.1006 30.056 25.1089 30.136 25.2922 30.48C25.4337 30.728 25.6003 30.896 25.8585 31.024C26.1416 31.168 26.3082 31.2 26.5996 31.168C26.8078 31.152 27.066 31.064 27.1826 30.976C27.2992 30.896 27.4741 30.704 27.5824 30.552C27.7656 30.288 27.7739 30.216 27.7656 28.6C27.7656 27.672 27.7822 26.896 27.8072 26.864C27.8322 26.824 27.9488 26.872 28.082 26.968C28.207 27.056 28.4984 27.152 28.7233 27.176C29.0731 27.216 29.198 27.192 29.5144 27.024C29.756 26.896 29.9392 26.72 30.0391 26.528C30.1141 26.368 30.1807 26.096 30.1807 25.92C30.1807 25.744 30.1307 25.504 30.0641 25.384C29.9975 25.256 29.3146 24.56 28.5401 23.824C27.574 22.904 27.066 22.472 26.8911 22.44C26.7579 22.408 26.583 22.376 26.5164 22.36C26.4497 22.352 26.2749 22.36 26.1416 22.392C26.0084 22.424 25.7419 22.56 25.5586 22.696ZM0 12.736L0.58296 12.936C0.899425 13.048 1.53235 13.24 1.99039 13.368C2.44843 13.496 3.25625 13.688 3.78091 13.8C4.30558 13.904 5.22166 14.064 5.82128 14.152C6.41256 14.24 7.07048 14.328 7.27868 14.36C7.48688 14.384 8.2364 14.456 8.94428 14.528C9.65216 14.592 11.3761 14.664 12.7752 14.696C14.3658 14.72 15.9398 14.704 16.9808 14.648C17.8969 14.6 19.1711 14.496 19.8123 14.432C20.4536 14.368 21.428 14.24 21.9776 14.16C22.5273 14.072 23.3517 13.928 23.8098 13.84C24.2678 13.752 25.0756 13.568 25.6003 13.432C26.125 13.296 26.7995 13.096 27.0993 12.992C27.3991 12.88 27.6656 12.8 27.6989 12.8C27.7406 12.8 27.7656 13.312 27.7656 15.08L26.3665 15.088C25.2755 15.096 24.7841 15.136 24.1012 15.272C23.6182 15.368 22.8854 15.56 22.4773 15.696C22.0692 15.832 21.428 16.08 21.0615 16.256C20.6951 16.44 20.1371 16.744 19.8123 16.944C19.4875 17.136 18.9296 17.536 18.5715 17.832C18.205 18.12 17.722 18.56 17.0641 19.256L15.4401 19.304C14.549 19.336 12.9334 19.32 11.8591 19.28C10.7848 19.232 9.31904 19.144 8.61116 19.072C7.90328 19.008 6.67906 18.848 5.90456 18.72C5.12172 18.592 4.03908 18.384 3.48943 18.248C2.93979 18.12 2.11531 17.88 1.65727 17.728C1.19923 17.576 0.649584 17.376 0.033312 17.12L0 12.736ZM0.08328 19.92C0.116592 19.92 0.557976 20.056 1.06598 20.224C1.57399 20.4 2.45676 20.648 3.03139 20.784C3.5977 20.92 4.63037 21.12 5.3216 21.232C6.00449 21.344 7.07048 21.488 7.69508 21.552C8.31135 21.616 9.37733 21.712 10.0686 21.76C10.7515 21.8 12.2005 21.848 13.2915 21.856C14.3825 21.872 15.2736 21.904 15.2736 21.936C15.2736 21.968 15.1903 22.184 15.0987 22.416C14.9987 22.648 14.8322 23.128 14.7156 23.48C14.6073 23.832 14.4657 24.424 14.3908 24.8C14.3242 25.168 14.2742 25.648 14.2742 25.856C14.2742 26.064 14.2492 26.288 14.2326 26.36C14.1992 26.456 14.016 26.472 13.3331 26.472C12.8668 26.472 11.8258 26.44 11.0263 26.392C10.2185 26.352 9.01923 26.256 8.36132 26.192C7.69508 26.12 6.58745 25.976 5.90456 25.864C5.21333 25.752 4.14735 25.544 3.53107 25.392C2.90647 25.248 2.00705 24.992 1.53235 24.832C1.04933 24.672 0.516336 24.472 0.033312 24.24V22.08C0.033312 20.888 0.058296 19.92 0.08328 19.92ZM0.016656 27.048L0.957721 27.352C1.48238 27.52 2.37348 27.768 2.94811 27.904C3.51442 28.04 4.41384 28.224 4.94684 28.312C5.4715 28.4 6.47919 28.544 7.1954 28.632C7.90328 28.72 9.08585 28.824 9.81872 28.88C10.5516 28.928 11.8924 28.992 14.4574 29.08L14.649 29.8C14.7572 30.192 14.9488 30.752 15.0654 31.04C15.1903 31.32 15.4151 31.792 15.565 32.08C15.7066 32.36 16.073 32.936 16.3645 33.36C16.656 33.776 17.2556 34.48 18.4965 35.72L15.8648 35.784C14.4158 35.824 12.2921 35.84 11.1512 35.808C10.0019 35.784 8.69444 35.72 8.2364 35.672C7.77836 35.624 7.02884 35.536 6.5708 35.472C6.11276 35.408 5.30494 35.264 4.78027 35.144C4.24728 35.032 3.34786 34.792 2.78155 34.608C2.15695 34.416 1.54068 34.16 1.25753 33.976C0.991033 33.816 0.66624 33.52 0.524664 33.336C0.383088 33.152 0.216528 32.816 0.149904 32.6C0.058296 32.288 0.024984 31.624 0.016656 29.624V27.048Z" fill="#235154"/>
</svg>
