<svg width="17" height="17" viewBox="0 0 17 17" fill="#DAD9D5" xmlns="http://www.w3.org/2000/svg">
<path fill-rule="evenodd" clip-rule="evenodd" d="M16.709 16.7187C16.5216 16.9055 16.2677 17.0104 16.003 17.0104C15.7383 17.0104 15.4844 16.9055 15.297 16.7187L12.041 13.4317C10.697 14.4506 9.04787 14.9851 7.36166 14.9482C5.67546 14.9114 4.05128 14.3053 2.75307 13.2286C1.45487 12.1519 0.558951 10.6678 0.210918 9.01748C-0.137114 7.36717 0.0831958 5.64766 0.836045 4.1384C1.58889 2.62914 2.83003 1.41884 4.35775 0.704196C5.88547 -0.010451 7.60997 -0.187438 9.25101 0.201996C10.892 0.591431 12.3531 1.5244 13.3969 2.84927C14.4406 4.17415 15.0056 5.81306 15 7.49966C14.9948 9.13506 14.4503 10.7231 13.451 12.0177L16.709 15.3067C16.8959 15.4941 17.0008 15.748 17.0008 16.0127C17.0008 16.2773 16.8959 16.5312 16.709 16.7187ZM7.5 1.99966C6.4122 1.99966 5.34884 2.32223 4.44437 2.92658C3.5399 3.53093 2.83495 4.38991 2.41866 5.3949C2.00238 6.3999 1.89346 7.50576 2.10568 8.57266C2.3179 9.63955 2.84173 10.6196 3.61091 11.3887C4.3801 12.1579 5.36011 12.6818 6.42701 12.894C7.4939 13.1062 8.59977 12.9973 9.60476 12.581C10.6098 12.1647 11.4687 11.4598 12.0731 10.5553C12.6774 9.65083 13 8.58746 13 7.49966C13 6.04097 12.4205 4.64202 11.3891 3.61057C10.3576 2.57912 8.95869 1.99966 7.5 1.99966Z" fill="#DAD9D5"/>
</svg>
