<svg width="42" height="39" viewBox="0 0 42 39" fill="none" xmlns="http://www.w3.org/2000/svg">
<path fill-rule="evenodd" clip-rule="evenodd" d="M20.8632 0.000474763C21.3074 -0.00387932 22.013 0.0222452 22.4312 0.0570779C22.8493 0.0875564 23.4591 0.157222 23.7814 0.205117C24.1037 0.253012 24.5262 0.322677 24.7178 0.361864C24.9095 0.40105 25.271 0.483778 25.5236 0.544735C25.7762 0.605692 26.2771 0.740669 26.6343 0.849521C26.9958 0.954019 27.6317 1.18043 28.0499 1.34589C28.468 1.51134 29.0865 1.77694 29.4219 1.9424C29.7572 2.10785 30.2668 2.37345 30.5543 2.53891C30.8418 2.70436 31.2948 2.97867 31.5561 3.14848C31.8174 3.32264 32.2399 3.61436 32.4925 3.80159C32.7452 3.98882 33.1764 4.32843 33.4508 4.5592C33.7252 4.78997 34.1956 5.21667 34.4961 5.50404C34.7966 5.79576 35.267 6.29213 35.5414 6.60997C35.8158 6.92347 36.1861 7.37194 36.3646 7.6027C36.5432 7.83782 36.8873 8.32984 37.1312 8.69993C37.3795 9.07003 37.7018 9.58817 37.8542 9.85377C38.0067 10.1194 38.268 10.6288 38.4422 10.9858C38.6121 11.3472 38.8386 11.8436 38.9388 12.0961C39.0433 12.3487 39.2262 12.8494 39.3482 13.2108C39.4702 13.5722 39.579 13.8813 39.5921 13.8944C39.6052 13.9074 40.0756 13.8421 40.6374 13.7507C41.1993 13.6592 41.661 13.5852 41.6654 13.5896C41.6654 13.5939 41.2342 14.7608 40.7071 16.1759C40.1758 17.5953 39.7358 18.7579 39.7228 18.7579C39.7097 18.7622 39.505 18.5315 39.2654 18.2484C39.0259 17.9654 38.2375 17.0249 37.5101 16.1585C36.7871 15.2877 36.1991 14.5692 36.2035 14.5605C36.2122 14.5518 36.639 14.4734 37.153 14.3864C37.6669 14.2993 38.1156 14.2166 38.1417 14.2078C38.1853 14.1904 38.1548 14.0555 38.0285 13.6984C37.937 13.4285 37.7889 13.0279 37.7061 12.8145C37.6234 12.6012 37.4448 12.1876 37.3141 11.9002C37.1835 11.6128 36.9439 11.1339 36.7828 10.8334C36.6216 10.533 36.3298 10.0366 36.1338 9.73185C35.9421 9.42707 35.6155 8.95247 35.4108 8.67816C35.2061 8.40386 34.8532 7.96409 34.6268 7.69414C34.4003 7.42854 33.8907 6.89299 33.4943 6.50548C33.098 6.12232 32.5404 5.61724 32.253 5.38648C31.9655 5.15571 31.5125 4.81609 31.2512 4.62887C30.9899 4.44599 30.5107 4.13685 30.1928 3.94963C29.8792 3.7624 29.3696 3.47939 29.0603 3.32699C28.7555 3.1746 28.272 2.94819 27.9845 2.82192C27.6971 2.70001 27.1178 2.4823 26.6996 2.34297C26.2815 2.20364 25.6935 2.02512 25.393 1.9511C25.0924 1.87708 24.6743 1.77694 24.4565 1.7334C24.2387 1.68986 23.7814 1.61149 23.433 1.56359C23.0845 1.5157 22.4791 1.45474 22.0827 1.42426C21.6385 1.39378 21.0156 1.38072 20.4494 1.39814C19.9441 1.41555 19.269 1.45474 18.9467 1.49393C18.6244 1.52876 18.1801 1.58972 17.9667 1.6289C17.7533 1.66373 17.3874 1.7334 17.1609 1.78129C16.9344 1.82919 16.5337 1.92498 16.268 1.99465C16.0024 2.06431 15.5624 2.19929 15.288 2.29508C15.0136 2.38651 14.5999 2.53455 14.3734 2.62163C14.1469 2.71307 13.5589 2.98302 13.0711 3.22685C12.5789 3.47068 12.1738 3.65355 12.1651 3.62743C12.1564 3.6013 12.0039 3.33135 11.8254 3.01785C11.5292 2.49972 11.5074 2.44747 11.5771 2.39522C11.6163 2.36039 11.9822 2.17316 12.3916 1.97287C12.801 1.77259 13.4239 1.48957 13.7854 1.35024C14.1425 1.20656 14.6957 1.01062 15.0049 0.910478C15.3142 0.814688 15.7976 0.675358 16.072 0.605692C16.3464 0.531673 16.8865 0.414113 17.2698 0.344447C17.6531 0.270428 18.2106 0.178992 18.5112 0.14416C18.8117 0.104973 19.2821 0.0570779 19.5565 0.0396615C19.8309 0.0222452 20.4189 0.000474763 20.8632 0.000474763ZM7.09957 0.71019C7.4306 0.723253 7.705 0.758085 7.91407 0.814688C8.08829 0.866937 8.35398 0.967081 8.50207 1.0411C8.65451 1.11947 8.86358 1.23703 8.97247 1.31105C9.08136 1.38507 9.26429 1.53747 9.38189 1.64632C9.49949 1.75517 9.67807 1.95981 9.77825 2.1035C9.87843 2.24718 10.0265 2.48666 10.1006 2.63905C10.1746 2.78709 10.2791 3.0614 10.3314 3.24862C10.4098 3.51857 10.4272 3.69274 10.4272 4.17169C10.4272 4.65064 10.4098 4.8248 10.3314 5.09911C10.2791 5.28198 10.1746 5.55629 10.1006 5.70868C10.0265 5.85672 9.87843 6.09619 9.77825 6.23988C9.67807 6.38356 9.49949 6.5882 9.38189 6.69705C9.26429 6.80591 9.08136 6.9583 8.97247 7.03232C8.86358 7.10634 8.65451 7.2239 8.50207 7.30227C8.35398 7.37629 8.07958 7.48079 7.89229 7.53304C7.61789 7.61141 7.44802 7.62883 6.96891 7.62883C6.54206 7.62883 6.30251 7.60706 6.09779 7.55046C5.94099 7.50691 5.6753 7.41113 5.50979 7.33275C5.34428 7.25438 5.10472 7.12811 4.98712 7.04538C4.86517 6.96265 4.67352 6.80591 4.55592 6.69705C4.43832 6.5882 4.25974 6.38356 4.15957 6.23988C4.05939 6.09619 3.9113 5.85672 3.83725 5.70868C3.76321 5.55629 3.65868 5.28198 3.60641 5.09911C3.52801 4.8248 3.51059 4.65064 3.51059 4.17169C3.51059 3.69274 3.52801 3.51857 3.60641 3.24862C3.65868 3.0614 3.76321 2.78709 3.83725 2.63905C3.9113 2.48666 4.05939 2.24718 4.15957 2.1035C4.25974 1.95981 4.43832 1.75517 4.55592 1.64632C4.67352 1.53747 4.86517 1.38072 4.98712 1.29799C5.10472 1.21526 5.34428 1.089 5.50979 1.01062C5.6753 0.932249 5.93228 0.840813 6.07602 0.80598C6.21975 0.766793 6.39397 0.727607 6.46802 0.714544C6.54206 0.705836 6.82517 0.701482 7.09957 0.71019ZM21.0374 4.19346C21.29 4.20217 21.5905 4.24135 21.7125 4.27183C21.8301 4.30666 22.0392 4.38068 22.1698 4.43729C22.3005 4.49389 22.5183 4.60274 22.649 4.67676C22.7796 4.75513 23.0192 4.9293 23.1803 5.05992C23.3458 5.1949 23.6072 5.45614 23.764 5.64337C23.9208 5.82624 24.1908 6.18327 24.3563 6.43581C24.5218 6.68835 24.805 7.18907 24.9792 7.5461C25.1534 7.90749 25.393 8.4474 25.5106 8.75218C25.6238 9.05697 25.7109 9.31386 25.6978 9.32692C25.6848 9.33563 25.345 9.38352 24.9356 9.43577C24.5262 9.48367 23.8424 9.55333 23.4112 9.58817C22.98 9.623 22.1742 9.66654 21.6254 9.68396C21.033 9.70137 20.1968 9.69267 19.5783 9.66219C19.0033 9.63171 18.3456 9.59252 18.1192 9.57075C17.8927 9.54898 17.3482 9.48367 16.1112 9.33128L16.1374 9.22242C16.1548 9.16147 16.2288 8.94812 16.3029 8.74347C16.3769 8.53883 16.6034 8.04247 16.8081 7.63318C17.0172 7.22825 17.296 6.72753 17.431 6.52289C17.566 6.31825 17.8143 5.98734 17.9798 5.7827C18.1409 5.57806 18.4328 5.27762 18.6244 5.11217C18.8117 4.95107 19.1166 4.72901 19.2952 4.62451C19.4737 4.52001 19.7481 4.38939 19.9049 4.3415C20.0617 4.28925 20.2752 4.23264 20.3841 4.21087C20.4929 4.19346 20.7848 4.18475 21.0374 4.19346ZM24.8834 4.71595C24.9618 4.73336 25.2274 4.81174 25.4801 4.89011C25.7327 4.96848 26.1334 5.10346 26.373 5.1949C26.6125 5.28198 27.0524 5.4692 27.353 5.60418C27.6535 5.73916 28.1021 5.96557 28.3547 6.10925C28.6074 6.24858 29.0691 6.53595 29.3783 6.74495C29.6875 6.9583 30.0795 7.23696 30.2494 7.37194C30.4193 7.50691 30.6763 7.72462 30.8287 7.85524C30.9768 7.98151 31.0988 8.10342 31.0988 8.12519C31.0988 8.14261 30.7416 8.25582 30.306 8.38209C29.8661 8.50835 29.2825 8.66946 29.0081 8.73912C28.7337 8.81314 28.1849 8.93941 27.7885 9.02649C27.3922 9.11357 27.0568 9.16582 27.0437 9.1484C27.0263 9.13099 26.9827 9.00472 26.9392 8.8741C26.8956 8.74347 26.7563 8.36032 26.6256 8.02505C26.4949 7.68979 26.2379 7.12375 26.055 6.76237C25.8721 6.40533 25.5759 5.8959 25.4017 5.6303C25.2231 5.36471 25.0053 5.06427 24.9095 4.95542C24.818 4.84657 24.744 4.74207 24.744 4.72466C24.7483 4.70289 24.8093 4.70289 24.8834 4.71595ZM17.1566 4.74207C17.1871 4.73772 17.1174 4.84222 16.9998 4.96848C16.8865 5.0904 16.6905 5.33423 16.5642 5.49968C16.4423 5.66949 16.2506 5.96122 16.1374 6.15279C16.0241 6.34437 15.8325 6.69705 15.7149 6.93653C15.5929 7.176 15.3969 7.60706 15.275 7.89443C15.1574 8.1818 14.9919 8.58237 14.9135 8.78701C14.8351 8.99166 14.748 9.15711 14.7131 9.15711C14.6826 9.15711 14.4692 9.11793 14.2427 9.07438C13.8551 8.99601 13.8071 8.96989 13.4805 8.7217C13.2888 8.57802 13.0231 8.39515 12.8925 8.32113C12.7618 8.24275 12.5048 8.12084 12.3263 8.04682C12.1477 7.9728 11.8167 7.8683 11.5945 7.81605C11.3767 7.76381 11.1938 7.71156 11.1938 7.69849C11.1938 7.68543 11.355 7.5461 11.5553 7.38935C11.7513 7.23261 12.0562 7.00184 12.2304 6.87557C12.4003 6.75366 12.7836 6.50983 13.0798 6.33131C13.3716 6.15715 13.7679 5.93509 13.9596 5.8393C14.1512 5.74351 14.552 5.56499 14.8525 5.44308C15.153 5.32552 15.6234 5.15571 15.8978 5.06863C16.1722 4.9859 16.5555 4.87705 16.7472 4.82915C16.9388 4.78126 17.1217 4.74207 17.1566 4.74207ZM5.29201 9.04826L6.11957 10.4633C6.57255 11.2384 6.95584 11.8741 6.96891 11.8741C6.98197 11.8741 7.36091 11.2384 8.6458 9.03955L9.86536 9.06132C10.9543 9.07438 11.1198 9.08745 11.3985 9.17017C11.5727 9.22242 11.8384 9.32692 11.9865 9.40094C12.139 9.47496 12.3785 9.623 12.5223 9.72314C12.666 9.82329 12.8707 10.0018 12.9796 10.1194C13.0885 10.2369 13.2453 10.4285 13.328 10.5504C13.4108 10.668 13.5371 10.9031 13.6155 11.0729C13.6939 11.2427 13.7897 11.4953 13.8333 11.6389C13.9073 11.8784 13.9117 12.1832 13.9378 18.8014H0L0.0130667 15.3486C0.0261334 11.9263 0.0261334 11.8958 0.121956 11.5823C0.174223 11.4125 0.278756 11.1469 0.352801 10.9945C0.426846 10.8465 0.574935 10.607 0.675113 10.4633C0.775291 10.3197 0.953869 10.115 1.07147 10.0062C1.18907 9.89731 1.372 9.74491 1.48089 9.67089C1.58978 9.59688 1.79449 9.47931 1.93823 9.4053C2.08196 9.33563 2.31716 9.23984 2.4609 9.20065C2.60463 9.15711 2.80934 9.10922 2.91823 9.0918C3.02712 9.07438 3.60205 9.05697 5.29201 9.04826ZM32.2312 9.26596C32.2443 9.26596 32.3314 9.34434 32.4272 9.44884C32.5274 9.55333 32.7626 9.832 32.9499 10.0715C33.1415 10.3109 33.4377 10.7115 33.6076 10.9641C33.7774 11.2166 34.03 11.6172 34.1694 11.8566C34.3044 12.0961 34.5048 12.4575 34.605 12.6622C34.7095 12.8668 34.8881 13.2674 35.01 13.5547C35.132 13.8421 35.3062 14.3123 35.4021 14.5997C35.4979 14.8871 35.646 15.4052 35.7331 15.7535C35.8202 16.1019 35.9204 16.5634 35.9552 16.7768C35.9944 16.9901 36.051 17.4255 36.0859 17.7347C36.1207 18.0438 36.1512 18.4139 36.1512 18.8014H28.4854V18.083C28.4854 17.6868 28.4636 17.0641 28.4419 16.6984C28.4157 16.337 28.3678 15.7318 28.3286 15.3617C28.2938 14.9916 28.2154 14.3428 28.1544 13.9248C28.0978 13.5068 27.9584 12.7318 27.8539 12.205C27.745 11.6781 27.6187 11.1121 27.5707 10.9423C27.5228 10.7725 27.4836 10.607 27.4836 10.5722C27.4836 10.5243 27.6187 10.4808 28.0194 10.4067C28.3112 10.3501 28.9427 10.2108 29.4219 10.0932C29.901 9.97568 30.6458 9.77104 31.077 9.64042C31.5082 9.50979 31.9394 9.37046 32.0352 9.33563C32.131 9.3008 32.2181 9.27032 32.2312 9.26596ZM15.667 10.7159L16.2071 10.7986C16.5032 10.8421 17.1304 10.9162 17.5965 10.9641C18.0625 11.012 18.8073 11.0686 19.2516 11.0947C19.6959 11.1164 20.432 11.1382 20.8849 11.1382C21.3423 11.1382 22.0827 11.1164 22.5401 11.0947C22.9974 11.0686 23.7596 11.012 24.2387 10.9641C24.7178 10.9162 25.3363 10.8421 26.1247 10.7246L26.1682 10.877C26.1944 10.9597 26.2859 11.3429 26.3686 11.726C26.4557 12.1092 26.582 12.7754 26.6517 13.2064C26.7258 13.6375 26.8216 14.2949 26.8695 14.665C26.9174 15.0351 26.9871 15.6839 27.0219 16.1019C27.0611 16.5199 27.1091 17.2252 27.1352 17.6693C27.157 18.1135 27.1787 18.5489 27.1787 18.8014H15.3316L15.3577 11.9873L15.471 11.5301C15.532 11.2776 15.6016 10.9945 15.6234 10.8944L15.667 10.7159ZM5.56642 20.1947H13.3106L13.3411 21.2919C13.3542 21.8972 13.4021 22.7375 13.4369 23.1555C13.4761 23.5735 13.5458 24.2222 13.5937 24.5923C13.6416 24.9624 13.7331 25.5589 13.7941 25.9203C13.8551 26.2774 13.9683 26.8652 14.0511 27.2266C14.1295 27.5836 14.2253 27.9885 14.2645 28.1191C14.2993 28.2498 14.3342 28.3891 14.3342 28.4239C14.3342 28.4718 14.2035 28.511 13.8202 28.585C13.5371 28.6416 13.0144 28.7548 12.6573 28.8376C12.2958 28.9203 11.7165 29.0683 11.3724 29.1685C11.0239 29.2643 10.4751 29.4341 9.56483 29.7302L9.32963 29.4776C9.19896 29.3426 8.9594 29.0509 8.78953 28.8376C8.61967 28.6199 8.35398 28.2498 8.19282 28.0103C8.03167 27.7708 7.7834 27.379 7.64402 27.1395C7.50464 26.9 7.24766 26.408 7.0778 26.051C6.90357 25.6896 6.67273 25.1627 6.56384 24.8754C6.45495 24.588 6.28944 24.0786 6.18926 23.7433C6.09344 23.408 5.95406 22.8507 5.88437 22.5024C5.81033 22.1541 5.72757 21.6446 5.69273 21.3703C5.65788 21.096 5.61433 20.7172 5.5969 20.53L5.56642 20.1947ZM14.626 20.1947H27.1831L27.157 20.8827C27.1439 21.2571 27.1047 21.9581 27.0699 22.4371C27.035 22.916 26.9566 23.7128 26.8956 24.2005C26.8347 24.6925 26.7301 25.437 26.6561 25.855C26.582 26.2774 26.4557 26.9218 26.373 27.2919C26.2902 27.6663 26.2031 28.0364 26.1378 28.2715L25.6238 28.1975C25.345 28.1583 24.7222 28.0843 24.2431 28.0364C23.764 27.9885 23.0061 27.9276 22.5662 27.9014C22.1219 27.8797 21.3771 27.8579 20.9111 27.8579C20.4407 27.8579 19.6959 27.8797 19.256 27.9014C18.8117 27.9276 18.154 27.9755 17.7968 28.0103C17.4353 28.0495 16.8212 28.1191 16.4336 28.1757C15.8064 28.2628 15.7149 28.2628 15.6844 28.2062C15.6626 28.1714 15.6016 27.9668 15.5537 27.7491C15.5015 27.5357 15.3926 27.0263 15.3142 26.617C15.2314 26.2121 15.1182 25.5459 15.0572 25.1366C14.9962 24.7317 14.9178 24.1221 14.8786 23.7868C14.8438 23.4516 14.7828 22.8072 14.748 22.35C14.7131 21.8972 14.6739 21.2266 14.6565 20.8609L14.626 20.1947ZM28.5856 20.1947H31.4036L31.1423 20.5082C30.9942 20.6824 30.7808 20.9828 30.6632 21.1744C30.5499 21.366 30.3931 21.6707 30.3235 21.8493C30.2494 22.0278 30.1492 22.3413 30.1013 22.5459C30.0491 22.7506 29.9968 23.1424 29.9837 23.4167C29.9663 23.7215 29.975 24.0698 30.0099 24.3093C30.0403 24.5227 30.11 24.8623 30.1667 25.0582C30.2276 25.2585 30.3409 25.5589 30.4236 25.7331C30.5064 25.9073 30.6632 26.1859 30.7764 26.3557C30.8897 26.5212 31.077 26.7694 31.3949 27.1395L31.0291 27.17C30.8287 27.1874 30.5325 27.2309 30.3714 27.2657C30.2102 27.3006 29.9315 27.379 29.7485 27.4443C29.5699 27.5052 29.2476 27.6489 29.0386 27.7621C28.8251 27.8753 28.4854 28.0974 28.2851 28.2585C27.9323 28.5458 27.9148 28.5546 27.7406 28.5197C27.6448 28.5023 27.5577 28.4805 27.549 28.4675C27.5403 28.4544 27.5838 28.2498 27.6404 28.0103C27.6971 27.7708 27.7842 27.3877 27.8321 27.1612C27.88 26.9348 27.9758 26.4036 28.0455 25.9856C28.1195 25.5677 28.2241 24.8013 28.2851 24.2876C28.346 23.7738 28.4244 22.9508 28.4636 22.4588C28.4985 21.9668 28.5377 21.2571 28.5551 20.8783L28.5856 20.1947ZM34.9796 20.2165C35.3106 20.2295 35.585 20.2644 35.7941 20.3253C35.9683 20.3732 36.234 20.4734 36.3821 20.5517C36.5301 20.6258 36.7436 20.7477 36.8525 20.8217C36.957 20.8957 37.1443 21.0438 37.2575 21.1526C37.3751 21.2615 37.5537 21.4661 37.6582 21.6098C37.7628 21.7535 37.9152 22.0191 37.998 22.1976C38.0807 22.3805 38.1853 22.6548 38.2288 22.8072C38.2854 23.0162 38.3072 23.2513 38.3072 23.678C38.3072 24.1569 38.2898 24.3311 38.2114 24.6054C38.1591 24.7883 38.0546 25.0626 37.9762 25.215C37.9021 25.363 37.7584 25.6025 37.6582 25.7462C37.5537 25.8899 37.3751 26.0989 37.2575 26.2077C37.1443 26.3166 36.957 26.4646 36.8525 26.5386C36.7436 26.6126 36.5301 26.7345 36.3821 26.8086C36.234 26.8826 35.9596 26.9871 35.7723 27.0393C35.4979 27.1221 35.328 27.1395 34.8489 27.1351C34.4177 27.1351 34.1825 27.1134 33.9778 27.0567C33.821 27.0176 33.5553 26.9174 33.3898 26.839C33.2199 26.765 32.9847 26.6344 32.8671 26.5517C32.7452 26.4689 32.5535 26.3166 32.4359 26.2077C32.3183 26.0989 32.1397 25.8899 32.0396 25.7462C31.935 25.6025 31.7913 25.363 31.7172 25.215C31.6432 25.0626 31.5387 24.7883 31.482 24.6054C31.4036 24.3311 31.3862 24.1569 31.3862 23.678C31.3862 23.2034 31.4036 23.0292 31.482 22.7549C31.5387 22.5677 31.6432 22.2934 31.7172 22.1453C31.7913 21.993 31.935 21.7535 32.0396 21.6098C32.1397 21.4661 32.3183 21.2615 32.4359 21.1526C32.5535 21.0438 32.7452 20.887 32.8671 20.8043C32.9847 20.7259 33.2199 20.5953 33.3898 20.5169C33.5553 20.4385 33.8123 20.3471 33.956 20.3123C34.0997 20.2731 34.274 20.2339 34.348 20.2252C34.4177 20.2121 34.7008 20.2121 34.9796 20.2165ZM2.10374 20.2383C2.12116 20.2383 2.92259 21.1787 3.88081 22.3282C4.83904 23.4777 5.61433 24.4269 5.60997 24.4356C5.60562 24.4443 5.17877 24.527 4.66481 24.6141C4.1465 24.7012 3.70223 24.7839 3.67174 24.7926C3.63254 24.8057 3.67174 24.9711 3.81548 25.3891C3.92437 25.707 4.13343 26.2512 4.28152 26.5952C4.42961 26.9435 4.68659 27.4922 4.8521 27.8144C5.01761 28.1409 5.27024 28.5981 5.41397 28.8376C5.5577 29.077 5.83646 29.5081 6.03246 29.7911C6.22411 30.0785 6.58997 30.5661 6.8426 30.8796C7.09086 31.1931 7.58304 31.7417 7.93149 32.0988C8.27558 32.4558 8.76776 32.9261 9.02038 33.1481C9.26865 33.3658 9.61274 33.6532 9.7826 33.7838C9.94812 33.9188 10.2835 34.1626 10.5231 34.3324C10.7626 34.5066 11.2199 34.8027 11.5466 34.9986C11.8689 35.1945 12.4351 35.508 12.8097 35.6953C13.1799 35.8825 13.8071 36.1611 14.2035 36.3179C14.5955 36.4746 15.1748 36.6836 15.4884 36.7794C15.7976 36.8752 16.2898 37.0145 16.5773 37.0842C16.8648 37.1582 17.3134 37.254 17.5791 37.3019C17.8404 37.3498 18.2803 37.4195 18.5591 37.4587C18.8335 37.4935 19.3344 37.5414 19.6697 37.5675C20.0051 37.5936 20.5626 37.611 20.9111 37.611C21.2552 37.611 21.817 37.5893 22.1524 37.5675C22.4878 37.5414 23.0366 37.4804 23.372 37.4325C23.7074 37.3846 24.1778 37.3063 24.4173 37.2627C24.6569 37.2148 25.1447 37.0929 25.5062 36.9971C25.8634 36.897 26.1857 36.8143 26.2205 36.8143C26.2597 36.8099 26.3425 37.0145 26.6953 38.1553L26.3817 38.2555C26.2118 38.3077 25.7675 38.4209 25.3973 38.5036C25.0227 38.5864 24.4739 38.6952 24.1778 38.7431C23.8772 38.791 23.3458 38.8607 23.0017 38.8955C22.6533 38.9347 21.9259 38.9739 21.3902 38.9913C20.7804 39.0087 20.1358 39 19.6915 38.9652C19.2952 38.939 18.7377 38.8868 18.4502 38.8476C18.1627 38.8128 17.6618 38.7344 17.3395 38.6734C17.0128 38.6125 16.4858 38.4993 16.1635 38.4209C15.8368 38.3382 15.288 38.1814 14.944 38.0682C14.5955 37.955 14.0162 37.7504 13.6591 37.6067C13.2975 37.4674 12.7095 37.2061 12.3524 37.032C11.9909 36.8534 11.5031 36.5965 11.2635 36.4616C11.0239 36.3222 10.5231 36.0087 10.1528 35.7649C9.77825 35.5167 9.28607 35.1728 9.05522 34.9942C8.82438 34.8201 8.37576 34.45 8.0578 34.1713C7.7442 33.897 7.24331 33.4268 6.95584 33.1263C6.66402 32.8259 6.24153 32.3557 6.01068 32.0814C5.77984 31.8071 5.47495 31.4239 5.33121 31.2323C5.18748 31.0407 4.92615 30.6706 4.74757 30.405C4.57335 30.1438 4.29459 29.704 4.12908 29.4254C3.96357 29.1511 3.66739 28.6024 3.47139 28.2062C3.27539 27.8144 3.01841 27.2527 2.90081 26.9653C2.78756 26.6779 2.59156 26.1467 2.46961 25.7854C2.34765 25.424 2.23441 25.1148 2.22569 25.1018C2.21263 25.0887 1.74223 25.154 1.18036 25.2455C0.614135 25.3412 0.152445 25.4109 0.152445 25.4066C0.148089 25.4022 0.57929 24.2397 1.11067 22.8202C1.63769 21.4008 2.08632 20.2383 2.10374 20.2383ZM33.172 28.5546L33.9996 29.9696C34.4525 30.749 34.8358 31.3847 34.8489 31.3847C34.8576 31.3847 35.2409 30.7447 36.5258 28.5502L37.7453 28.5676C38.8342 28.585 38.9954 28.5937 39.2785 28.6808C39.4527 28.7331 39.7184 28.8332 39.8665 28.9072C40.0146 28.9856 40.2585 29.1293 40.4022 29.2294C40.546 29.3339 40.7507 29.5125 40.8596 29.63C40.9685 29.7432 41.1166 29.9304 41.1906 30.0349C41.2646 30.1438 41.3866 30.3528 41.4606 30.5052C41.539 30.6532 41.6436 30.9188 41.6958 31.093C41.7917 31.4065 41.7917 31.437 41.8178 38.3077H27.88L27.8887 34.8593C27.9018 31.437 27.9018 31.4065 27.9976 31.093C28.0542 30.9188 28.1587 30.6532 28.2328 30.5052C28.3068 30.3528 28.4506 30.1133 28.5551 29.9696C28.6553 29.8259 28.8339 29.6213 28.9515 29.5125C29.0691 29.4036 29.2607 29.2469 29.3827 29.1641C29.5003 29.0858 29.7355 28.9551 29.9053 28.8768C30.0708 28.7984 30.3278 28.7069 30.4715 28.6721C30.6153 28.6329 30.7895 28.5981 30.8635 28.585C30.9332 28.5763 31.482 28.5633 33.172 28.5546ZM20.7586 29.3035C21.1419 29.2991 21.8475 29.3165 22.3266 29.3383C22.8057 29.3644 23.4199 29.4036 23.6986 29.4297C23.973 29.4515 24.5218 29.5125 24.9182 29.5647C25.3102 29.6126 25.6499 29.6648 25.6674 29.6823C25.6848 29.6953 25.6412 29.8869 25.5672 30.1003C25.4975 30.318 25.2754 30.8274 25.0706 31.2323C24.8703 31.6416 24.6133 32.1205 24.5001 32.2991C24.3825 32.4819 24.1778 32.7737 24.0427 32.9522C23.9077 33.1351 23.6899 33.3963 23.5593 33.54C23.4242 33.6837 23.1716 33.9144 22.9974 34.0494C22.8188 34.1844 22.5444 34.3629 22.392 34.45C22.2352 34.5327 21.9608 34.6459 21.7822 34.7025C21.5121 34.7852 21.3553 34.8027 20.9111 34.8027C20.4625 34.8027 20.3057 34.7852 20.04 34.7025C19.857 34.6459 19.5652 34.5284 19.391 34.4413C19.2124 34.3542 18.9075 34.1539 18.7159 33.9972C18.5199 33.8361 18.2281 33.553 18.0625 33.3658C17.897 33.1742 17.627 32.8128 17.4615 32.5603C17.2916 32.3121 17.0128 31.8114 16.8386 31.45C16.6644 31.093 16.4292 30.5574 16.3203 30.2657C16.2071 29.9696 16.12 29.7171 16.1156 29.6997C16.1156 29.6823 16.2201 29.6518 16.3464 29.6344C16.4728 29.617 16.8996 29.5647 17.296 29.5168C17.688 29.4733 18.3456 29.4123 18.7551 29.3862C19.1601 29.3601 19.6218 29.3296 19.7786 29.3252C19.9311 29.3165 20.3753 29.3078 20.7586 29.3035ZM14.6173 29.9087C14.687 29.9043 14.7392 29.9914 14.9135 30.4573C15.0311 30.7664 15.2227 31.2323 15.3403 31.4936C15.4623 31.7592 15.6844 32.212 15.8368 32.5081C15.9936 32.7998 16.2288 33.2134 16.3639 33.4224C16.4989 33.6314 16.7036 33.9231 16.8212 34.0755C16.9388 34.2236 17.0259 34.3585 17.0216 34.3673C17.0172 34.3803 16.782 34.3237 16.4989 34.2366C16.2158 34.1539 15.7759 34.0059 15.5189 33.9144C15.2619 33.8186 14.8264 33.6401 14.552 33.5226C14.2732 33.4007 13.8246 33.1786 13.5502 33.0262C13.2758 32.8782 12.7662 32.569 12.4177 32.3383C12.0693 32.1075 11.6076 31.7722 11.3855 31.5981C11.1677 31.4195 10.9107 31.2018 10.8105 31.1148C10.7103 31.0233 10.6363 30.9406 10.6407 30.9275C10.645 30.9188 11.1023 30.7795 11.6555 30.6227C12.2043 30.466 12.997 30.2614 13.4195 30.1656C13.8376 30.0698 14.2601 29.974 14.356 29.9522C14.4518 29.9304 14.5694 29.913 14.6173 29.9087ZM26.5036 31.4892C26.5036 31.4892 26.4949 32.0117 26.4644 33.8012L25.7893 34.0276C25.4147 34.1539 25.0358 34.2715 24.7658 34.3194L25.0097 34.0189C25.1447 33.8491 25.3755 33.5313 25.5236 33.3005C25.6674 33.0741 25.9505 32.569 26.1465 32.1859C26.3425 31.7983 26.5036 31.4849 26.5036 31.4892Z" fill="#235154"/>
</svg>
