<svg width="44" height="41" viewBox="0 0 44 41" fill="none" xmlns="http://www.w3.org/2000/svg">
<path fill-rule="evenodd" clip-rule="evenodd" d="M18.1328 0V3.33125C18.1328 6.43188 18.1414 6.68813 18.2961 6.98708C18.3906 7.16646 18.5969 7.38 18.7859 7.49104C19.1125 7.67896 19.1898 7.67896 21.9742 7.6875C24.6641 7.6875 24.8531 7.67896 25.1797 7.51667C25.4089 7.40278 25.5807 7.23194 25.6953 7.00417C25.8586 6.67958 25.8672 6.49167 25.8672 0H27.9727C30.0094 0 30.0867 0.00854166 30.3875 0.196458C30.5594 0.298958 30.7742 0.529583 30.8602 0.708958C31.0148 1.00792 31.0234 1.37521 31.0234 14.5208H12.9766V7.77292C12.9766 1.37521 12.9852 1.00792 13.1398 0.708958C13.2258 0.529583 13.4234 0.298958 13.5867 0.196458C13.8617 0.025625 13.982 0.0170833 18.1328 0ZM20.7109 0H23.2891V5.125H20.7109V0ZM21.9828 34.5938C42.7969 34.5938 42.9688 34.5938 43.3125 34.7646C43.5417 34.8785 43.7135 35.0493 43.8281 35.2771C43.9656 35.5504 44 35.7896 44 36.5156C44 37.2417 43.9656 37.4808 43.8281 37.7542C43.7135 37.9819 43.5417 38.1528 43.3125 38.2667C42.9945 38.4204 42.7969 38.4375 38.7578 38.4375V39.2062C38.7578 39.7871 38.7148 40.0519 38.5945 40.2996C38.5086 40.4704 38.2938 40.701 38.1219 40.8121C37.8211 41 37.7695 41 34.8906 41C32.0117 41 31.9602 41 31.6594 40.8121C31.4875 40.701 31.2727 40.4704 31.1867 40.2996C31.0664 40.0519 31.0234 39.7871 31.0234 38.4375H12.9766V39.2062C12.9766 39.7871 12.9336 40.0519 12.8133 40.2996C12.7273 40.4704 12.5125 40.701 12.3406 40.8121C12.0398 41 11.9883 41 9.10938 41C6.23047 41 6.17891 41 5.87813 40.8121C5.70625 40.701 5.49141 40.4704 5.40547 40.2996C5.28516 40.0519 5.24219 39.7871 5.24219 38.4375H3.13672C1.20312 38.4375 1.00547 38.4204 0.6875 38.2667C0.458333 38.1528 0.286458 37.9819 0.171875 37.7542C0.034375 37.4808 0 37.2417 0 36.5156C0 35.7896 0.034375 35.5504 0.171875 35.2771C0.283594 35.0635 0.464063 34.8756 0.670313 34.7646C0.979688 34.6023 1.31484 34.6023 21.9828 34.5938ZM7.82031 17.0833V20.4146C7.82031 23.5152 7.82891 23.7715 7.98359 24.0704C8.07812 24.2498 8.28438 24.4633 8.47344 24.5744C8.8 24.7623 8.87734 24.7623 11.6703 24.7708C14.3516 24.7708 14.5406 24.7623 14.8672 24.6C15.0964 24.4861 15.2682 24.3153 15.3828 24.0875C15.5461 23.7629 15.5547 23.575 15.5547 17.0833H17.6172C19.5078 17.0833 19.7055 17.1004 20.0234 17.2542C20.2526 17.3681 20.4245 17.5389 20.5391 17.7667C20.7109 18.0998 20.7109 18.2792 20.7109 32.0312H2.66406V25.0698C2.66406 18.2792 2.66406 18.0998 2.83594 17.7667C2.94766 17.5531 3.12812 17.3652 3.33437 17.2542C3.62656 17.109 3.84141 17.0919 7.82031 17.0833ZM10.3984 17.0833H12.9766V22.2083H10.3984V17.0833ZM28.4453 17.0833V20.4146C28.4453 23.5152 28.4539 23.7715 28.6086 24.0704C28.7031 24.2498 28.9094 24.4633 29.0984 24.5744C29.425 24.7623 29.5023 24.7623 32.2953 24.7708C34.9766 24.7708 35.1656 24.7623 35.4922 24.6C35.7214 24.4861 35.8932 24.3153 36.0078 24.0875C36.1711 23.7629 36.1797 23.575 36.1797 17.0833H38.2422C40.1328 17.0833 40.3305 17.1004 40.6484 17.2542C40.8776 17.3681 41.0495 17.5389 41.1641 17.7667C41.3359 18.0998 41.3359 18.2792 41.3359 32.0312H23.2891V25.0698C23.2891 18.2792 23.2891 18.0998 23.4609 17.7667C23.5727 17.5531 23.7531 17.3652 23.9594 17.2542C24.2516 17.109 24.4664 17.0919 28.4453 17.0833ZM31.0234 17.0833H33.6016V22.2083H31.0234V17.0833Z" fill="#235154"/>
</svg>
