<svg width="38" height="38" viewBox="0 0 38 38" fill="none" xmlns="http://www.w3.org/2000/svg">
<path fill-rule="evenodd" clip-rule="evenodd" d="M18.9259 0.000976971C19.7415 -0.00829334 20.2698 0.0473286 21.0483 0.214194C21.6229 0.334708 22.4756 0.575737 22.9298 0.742602C23.3839 0.918738 24.0883 1.2432 24.4961 1.47496C24.8946 1.70671 25.562 2.16096 25.9698 2.49469C26.3776 2.82842 26.9522 3.3661 27.2395 3.69983C27.5176 4.03356 27.9346 4.57124 28.1663 4.90497C28.3888 5.2387 28.7688 5.92471 29.0098 6.43458C29.26 6.94444 29.5659 7.77877 29.7049 8.28864C29.8995 9.03026 29.9551 9.49378 29.9922 10.6526C30.0293 11.5796 30.0015 12.3398 29.9273 12.7847C29.8624 13.1648 29.7141 13.8323 29.5844 14.268C29.4639 14.7037 29.158 15.4731 28.9078 15.983C28.6576 16.4929 28.1663 17.2808 27.8234 17.7444C27.3322 18.384 26.2849 19.413 23.1337 22.3054C20.9093 24.3634 19.0463 26.0413 18.9907 26.0413C18.9351 26.0413 17.0722 24.3634 14.8385 22.3054C11.7059 19.413 10.6493 18.384 10.158 17.7444C9.81512 17.2808 9.3239 16.4929 9.08293 15.983C8.83268 15.4731 8.54537 14.7871 8.44341 14.4534C8.34146 14.1197 8.19317 13.4986 8.10976 13.0629C8.01707 12.5993 7.96146 11.7928 7.96146 11.1161C7.96146 10.4764 8.01707 9.60502 8.10049 9.16932C8.17463 8.73361 8.34146 8.04761 8.47122 7.63972C8.61024 7.23182 8.88829 6.56436 9.0922 6.15647C9.2961 5.74857 9.63902 5.16454 9.84293 4.85862C10.0561 4.5527 10.4639 4.03356 10.7512 3.69983C11.0293 3.3661 11.6132 2.82842 12.0302 2.49469C12.4473 2.16096 13.1332 1.69744 13.5502 1.45642C13.9673 1.20612 14.6624 0.881657 15.098 0.724062C15.5337 0.566466 16.3215 0.343979 16.859 0.223465C17.5449 0.0658692 18.1473 0.000976971 18.9166 0.000976971H18.9259ZM17.4707 6.60144C17.2112 6.68487 16.7571 6.91663 16.4512 7.11131C16.1454 7.30599 15.6912 7.69534 15.4502 7.97345C15.2 8.25156 14.8849 8.72434 14.7366 9.03026C14.5976 9.33618 14.4307 9.80897 14.3751 10.0685C14.3195 10.3374 14.2732 10.8194 14.2732 11.1346C14.2732 11.4591 14.338 11.969 14.4215 12.2749C14.4956 12.5808 14.681 13.0629 14.8293 13.341C14.9776 13.6191 15.3205 14.0733 15.5893 14.3422C15.858 14.611 16.2659 14.954 16.4976 15.1023C16.7293 15.2599 17.1834 15.4731 17.5171 15.5844C17.999 15.7512 18.3141 15.7976 19.0463 15.7883C19.7507 15.7791 20.1122 15.7327 20.5293 15.5751C20.8351 15.4639 21.3078 15.2321 21.5673 15.056C21.8361 14.8798 22.2439 14.5368 22.4756 14.2865C22.7073 14.0455 23.0132 13.6191 23.1615 13.341C23.319 13.0629 23.5044 12.5808 23.5785 12.2749C23.662 11.969 23.7268 11.4591 23.7268 11.1346C23.7268 10.8194 23.6805 10.3374 23.6249 10.0685C23.5693 9.80897 23.4024 9.33618 23.2634 9.03026C23.1151 8.72434 22.8 8.25156 22.5498 7.97345C22.3088 7.69534 21.8546 7.30599 21.5488 7.11131C21.2429 6.90736 20.7239 6.66633 20.3902 6.57363C20.0566 6.48093 19.6024 6.38822 19.3707 6.36968C19.139 6.35114 18.722 6.36041 18.4439 6.38822C18.1659 6.4253 17.721 6.51801 17.4707 6.60144ZM19.278 28.5165C19.5561 28.535 19.9732 28.5999 20.2049 28.6555C20.4366 28.7111 20.8722 28.8873 21.178 29.0356C21.4932 29.2025 21.9937 29.5918 22.3366 29.9348C22.7166 30.3149 23.041 30.7599 23.4951 31.6962H30.4L30.6595 31.2049C30.8078 30.9453 31.1322 30.5374 31.3824 30.3149C31.6327 30.1017 31.9849 29.8421 32.161 29.7494C32.3371 29.6567 32.7171 29.5177 32.9951 29.4342C33.2732 29.3508 33.7366 29.2859 34.0146 29.2859C34.2927 29.2859 34.7283 29.3415 34.9878 29.4157C35.238 29.4806 35.6366 29.6289 35.8683 29.7494C36.1 29.8699 36.4893 30.1573 36.7395 30.3891C36.9805 30.6208 37.2956 31.0009 37.4254 31.2327C37.5551 31.4644 37.7405 31.8909 37.8332 32.1782C37.9259 32.4749 38 32.9106 38 33.1516C38 33.4019 37.9351 33.8469 37.8517 34.1528C37.7776 34.4587 37.6015 34.913 37.4624 35.154C37.3234 35.4043 37.0268 35.7937 36.7951 36.0254C36.5634 36.2479 36.2112 36.5353 36.0073 36.6558C35.8034 36.767 35.3863 36.9432 35.0805 37.0266C34.682 37.1471 34.3112 37.1749 33.7829 37.1471C33.2083 37.1193 32.9024 37.0452 32.439 36.8319C32.1054 36.6836 31.6327 36.3684 31.3917 36.1459C31.1415 35.9142 30.8171 35.5341 30.4 34.8481L23.4951 34.8388L23.2171 35.3672C23.0688 35.6639 22.7259 36.1274 22.4756 36.4148C22.2161 36.6929 21.799 37.0544 21.5488 37.212C21.2893 37.3789 20.7702 37.6199 20.3902 37.759C19.8805 37.9351 19.5098 38 19 38C18.4902 38 18.1195 37.9351 17.6098 37.759C17.2298 37.6199 16.7015 37.3789 16.4512 37.212C16.1917 37.0544 15.7746 36.6929 15.5244 36.4148C15.2649 36.1274 14.9312 35.6639 14.5049 34.8388L7.6 34.8481L7.33122 35.2838C7.18293 35.5341 6.85854 35.9142 6.60829 36.1459C6.36732 36.3684 5.89463 36.6836 5.56098 36.8319C5.09756 37.0452 4.79171 37.1193 4.21707 37.1471C3.68878 37.1749 3.31805 37.1471 2.91951 37.0266C2.61366 36.9432 2.19659 36.767 1.99268 36.6558C1.78878 36.5353 1.45512 36.2757 1.26049 36.081C1.05659 35.8864 0.769268 35.5434 0.630244 35.3116C0.481951 35.0798 0.278049 34.6256 0.176098 34.2919C0.0834146 33.9581 0 33.5039 0 33.2721C0 33.0404 0.064878 32.6139 0.139024 32.3173C0.213171 32.0299 0.370732 31.6128 0.481951 31.3903C0.583902 31.177 0.87122 30.7877 1.1122 30.5374C1.35317 30.2778 1.77951 29.9534 2.04829 29.805C2.32634 29.6567 2.75268 29.4806 3.0122 29.4064C3.26244 29.3415 3.70732 29.2859 3.98537 29.2859C4.26341 29.2859 4.72683 29.3508 5.00488 29.4342C5.28293 29.5177 5.66293 29.6567 5.83902 29.7494C6.01512 29.8421 6.36732 30.1017 6.61756 30.3149C6.86781 30.5374 7.1922 30.9453 7.6 31.6962H14.5049L14.7922 31.1214C14.959 30.797 15.2649 30.3334 15.4873 30.0831C15.7098 29.8328 16.1454 29.462 16.4512 29.2674C16.7571 29.0727 17.2112 28.8409 17.4707 28.7575C17.721 28.6741 18.1195 28.5814 18.3512 28.535C18.5829 28.4979 19 28.4887 19.278 28.5165ZM17.7024 32.3636C17.582 32.5305 17.4615 32.8364 17.4429 33.0404C17.4151 33.2443 17.4429 33.5595 17.4985 33.7357C17.5541 33.9118 17.7488 34.1992 17.9249 34.3568C18.1102 34.5236 18.4254 34.6998 18.6293 34.7554C18.8764 34.8172 19.1236 34.8172 19.3707 34.7554C19.5746 34.6998 19.8898 34.5236 20.0751 34.3568C20.2512 34.1992 20.4459 33.9118 20.5015 33.7357C20.5571 33.5595 20.5849 33.2443 20.5571 33.0404C20.5385 32.8364 20.4088 32.512 20.2698 32.3173C20.1307 32.1319 19.8898 31.9094 19.7415 31.8352C19.5932 31.7611 19.241 31.6962 18.9722 31.6962C18.6571 31.6962 18.3883 31.7611 18.2122 31.8723C18.0546 31.965 17.8229 32.1875 17.7024 32.3636Z" fill="#235154"/>
</svg>
