<svg width="40" height="41" viewBox="0 0 40 41" fill="none" xmlns="http://www.w3.org/2000/svg">
<path fill-rule="evenodd" clip-rule="evenodd" d="M28.1963 0.5H37.7776L38.3095 0.734375C38.6145 0.875 38.9821 1.125 39.2011 1.34375C39.4123 1.54688 39.6704 1.92188 39.7877 2.17969C39.9755 2.57812 40.0067 2.74219 39.9989 3.3125C39.9911 3.96094 39.9676 4.04688 38.7944 7.33594C38.1374 9.1875 37.543 10.8203 37.4648 10.9688C37.3866 11.1172 37.1754 11.3984 36.9877 11.5859C36.7999 11.7734 36.4167 12.0391 35.6267 12.4141H33.0457C30.5741 12.4141 30.4489 12.4062 30.0344 12.2422C29.7997 12.1484 29.4243 11.9141 29.2131 11.7266C28.9941 11.5391 28.7282 11.2109 28.6109 11C28.5014 10.7891 28.0477 9.60156 27.6097 8.35156C27.1639 7.10156 26.7572 5.9375 26.5929 5.42188L24.575 5.44531C22.6979 5.46094 22.5414 5.46875 22.252 5.625C22.08 5.71875 21.7984 5.94531 21.6263 6.14062C21.4543 6.33594 21.2744 6.625 21.2196 6.79688C21.1727 6.96094 21.1101 7.25 21.0866 7.4375C21.0397 7.75 21.0554 7.77344 21.29 7.89062C21.4308 7.96094 22.299 8.75781 23.2219 9.67188C24.4655 10.8984 24.9348 11.4219 25.2633 12.1016V23.4297L25.0756 23.8203C24.9739 24.0312 24.7705 24.3203 24.6298 24.4609C24.4812 24.5938 24.2074 24.7812 24.0119 24.8672C23.6755 25.0234 23.5113 25.0312 20.414 25.0312C18.1223 25.0312 17.0742 25 16.8552 24.9375C16.6597 24.875 16.386 24.6875 16.1122 24.4062C15.8306 24.1328 15.6429 23.8594 15.5803 23.6641C15.5178 23.4375 15.4865 21.8594 15.4865 12.1016L15.6742 11.7109C15.815 11.4219 16.2843 10.8984 17.5279 9.67188C18.4508 8.75781 19.319 7.96094 19.452 7.89062C19.7022 7.77344 19.7101 7.75 19.7101 7.29688C19.7101 7.00781 19.7805 6.64062 19.89 6.34375C19.9838 6.07031 20.2028 5.66406 20.3749 5.42969C20.547 5.19531 20.8129 4.91406 20.9615 4.79688C21.1101 4.67969 21.3917 4.5 21.5872 4.40625C21.7828 4.30469 22.1113 4.17969 22.3303 4.125C22.5962 4.04688 23.2454 4.01562 26.0454 4.01562L26.0376 3.36719C26.0298 2.88281 26.0611 2.625 26.1862 2.29688C26.2801 2.0625 26.5226 1.67969 26.7259 1.44531C26.9918 1.15625 27.2656 0.945312 27.6488 0.765625L28.1963 0.5ZM29.9014 2.85938C29.7841 2.92188 29.5416 3.13281 29.3774 3.32031C29.2053 3.50781 29.0176 3.78125 28.955 3.9375C28.8846 4.08594 28.8377 4.4375 28.8377 4.71875C28.8377 5.09375 28.8846 5.32031 29.0254 5.60938C29.1271 5.82031 29.3696 6.13281 29.5651 6.29688C29.7606 6.46875 30.0891 6.64844 30.3081 6.71875C30.621 6.80469 31.1841 6.82812 33.163 6.80469C35.4703 6.78906 35.6502 6.77344 35.9787 6.625C36.1742 6.53125 36.448 6.34375 36.5966 6.19531C36.7374 6.04688 36.9329 5.78906 37.0189 5.61719C37.1441 5.38281 37.1832 5.15625 37.191 4.71875C37.191 4.28125 37.1519 4.04688 37.0346 3.82031C36.9486 3.64844 36.753 3.38281 36.6044 3.23438C36.4558 3.07812 36.1899 2.88281 36.0178 2.80469C35.7284 2.65625 35.5251 2.64844 33.1239 2.63281C31.7082 2.625 30.4489 2.64062 30.3316 2.67969C30.2143 2.71094 30.0187 2.79688 29.9014 2.85938ZM19.2017 11.7109C19.0687 11.9219 19.0061 12.1328 19.0061 12.3906C19.0061 12.5938 19.0531 12.875 19.1078 13.0156C19.1704 13.1562 19.3268 13.3672 19.4598 13.4844C19.6006 13.6016 19.8587 13.7344 20.0464 13.7812C20.2263 13.8281 20.4844 13.8438 20.6095 13.8125C20.7347 13.7812 20.938 13.7109 21.0632 13.6484C21.1805 13.5938 21.3682 13.4141 21.4934 13.2578C21.6498 13.0469 21.7124 12.8516 21.7358 12.5312C21.7593 12.1797 21.728 12.0312 21.5794 11.7578C21.4699 11.5547 21.2665 11.3437 21.0788 11.2344C20.8598 11.1016 20.6408 11.0469 20.3749 11.0469C20.109 11.0469 19.89 11.1016 19.6866 11.2188C19.5224 11.3203 19.3034 11.5391 19.2017 11.7109ZM18.31 17.0547L18.3022 21.8281L18.6933 22.2188H22.0643L22.4476 21.8281V17.0625L22.0565 16.6719H18.6855L18.31 17.0547ZM2.44812 24.3281C3.74648 24.3281 4.29398 24.3516 4.48169 24.4297C4.6303 24.4922 4.77109 24.625 4.83366 24.7578C4.91187 24.9375 4.92752 26.5859 4.88841 40.0938L4.49734 40.5H0.391073L0 40.0312V32.4922C0 27.6484 0.0312858 24.8828 0.0782146 24.7578C0.125143 24.6484 0.273751 24.5078 0.414537 24.4453C0.610074 24.3594 1.0559 24.3281 2.44812 24.3281ZM30.8947 13.8594H35.1183V17.2969L34.8602 17.5859C34.7116 17.75 34.5552 17.9609 34.5083 18.0547C34.4457 18.1719 34.4144 18.7969 34.4144 21.5156L34.7273 22.1406C34.8993 22.4844 35.0401 22.8438 35.0401 22.9375C35.0401 23.0313 34.9228 23.3672 34.7664 23.6797C34.6178 23.9922 34.4926 24.3125 34.4926 24.3906C34.4926 24.4688 34.6178 24.8984 34.7664 25.3438C34.9541 25.8828 35.0323 26.2422 35.0088 26.3984C34.9776 26.5547 34.7351 26.8594 34.2032 27.3906C33.7809 27.8047 33.3429 28.1797 33.2255 28.2266C33.0613 28.2891 32.944 28.2812 32.7563 28.1953C32.6155 28.1328 32.1775 27.7422 31.7786 27.3359C31.1685 26.7109 31.0512 26.5469 31.0512 26.3359C31.0512 26.1953 31.1607 25.7656 31.2858 25.3828C31.4188 24.9922 31.5205 24.5625 31.5205 24.4219C31.5205 24.2813 31.3953 23.9141 31.2467 23.6016C31.0981 23.2891 30.973 23 30.973 22.9609C30.973 22.9141 31.1138 22.5859 31.5987 21.5938V18.0781L31.3406 17.7812C31.192 17.6172 31.0355 17.4062 30.9886 17.3125C30.926 17.1953 30.8947 16.5703 30.8947 15.5V13.8594ZM6.35884 25.7031L7.42256 25.7578C8.11085 25.7891 8.68964 25.8594 9.05725 25.9609C9.3701 26.0469 9.83939 26.2344 10.1131 26.3672C10.3791 26.5 10.8796 26.8125 11.2238 27.0625C11.5679 27.3125 12.0998 27.6406 12.397 27.7891C12.702 27.9375 13.1244 28.1172 13.3356 28.1875C13.5546 28.2656 13.9848 28.375 14.2976 28.4297C14.7043 28.5156 15.5021 28.5469 17.1525 28.5469C18.7167 28.5469 19.5693 28.5781 19.8665 28.6484C20.1011 28.7031 20.4531 28.8359 20.6486 28.9453C20.8442 29.0625 21.1492 29.3125 21.3369 29.5078C21.5168 29.7109 21.7358 30.0234 21.8219 30.2031C21.9157 30.4062 21.9783 30.7031 21.9783 30.9688C21.9783 31.2266 21.9157 31.5234 21.6654 32.0625H19.3581C18.091 32.0625 16.777 32.0938 16.4485 32.1484C16.1122 32.1953 15.6116 32.3047 15.3301 32.3906C15.0485 32.4766 14.6261 32.6328 14.3915 32.7422C14.1568 32.8594 13.7658 33.0703 13.5311 33.2188C13.2965 33.3672 13.0071 33.5781 12.8819 33.6875C12.7255 33.8438 12.6708 33.9688 12.6708 34.1875C12.6708 34.4062 12.7255 34.5312 12.8898 34.6797C13.0227 34.8047 13.1948 34.875 13.3356 34.875C13.4685 34.875 13.6954 34.7891 13.844 34.6875C13.9926 34.5859 14.2976 34.3984 14.5088 34.2656C14.7278 34.1406 15.1502 33.9453 15.4474 33.8359C15.7524 33.7266 16.253 33.6016 16.5658 33.5547C16.9178 33.5 18.4665 33.4688 24.2074 33.4609L31.0121 31.2031C35.3686 29.75 37.9341 28.9375 38.1296 28.9375C38.3017 28.9375 38.5676 29 38.7162 29.0781C38.8648 29.1562 39.0682 29.3594 39.1698 29.5312C39.2637 29.6953 39.3419 29.9453 39.3419 30.0859C39.3419 30.2266 39.295 30.4531 39.2324 30.5938C39.1777 30.7344 39.0447 30.9219 38.943 31.0156C38.8413 31.1016 37.8558 31.7266 36.7608 32.3906C35.6658 33.0547 34.2032 33.9453 33.5149 34.3594C32.8266 34.7812 30.6992 36.0781 28.783 37.2422C26.8667 38.4062 25.0756 39.4453 24.2856 39.7578L6.33538 39.7969L6.35884 25.7031ZM35.353 4.00781L35.5876 4.24219C35.7441 4.39844 35.8223 4.55469 35.8223 4.71094C35.8223 4.85938 35.7441 5.02344 35.3608 5.41406H33.0926C31.3249 5.41406 30.7696 5.39062 30.5975 5.30469C30.4802 5.25 30.3394 5.09375 30.2847 4.97656C30.2221 4.82812 30.2065 4.66406 30.2456 4.52344C30.2769 4.39844 30.3942 4.22656 30.4959 4.14844C30.6679 4.01562 30.8713 4.00781 35.353 4.00781Z" fill="#235154"/>
</svg>
