<svg width="40" height="31" viewBox="0 0 40 31" fill="none" xmlns="http://www.w3.org/2000/svg">
<path fill-rule="evenodd" clip-rule="evenodd" d="M0 0H6.79688V5.49617C6.79688 9.1102 6.82031 10.9923 6.875 10.9923C6.91406 10.9923 7.85938 10.3281 8.96875 9.52143C10.0703 8.70689 11.0078 8.01888 11.0547 7.97934C11.1016 7.9398 11.9844 8.54082 13.2266 9.45026C14.375 10.2964 15.3438 10.9923 15.3906 10.9923C15.4453 10.9923 15.4688 9.1102 15.4688 0H22.6562L22.6172 20.6798L11.875 20.7194L11.3828 20.4505C11.1172 20.3003 10.6094 20.0867 10.2578 19.976C9.89844 19.8653 9.28125 19.7388 8.88281 19.6992C8.4375 19.6518 7.90625 19.6518 7.48438 19.6992C7.10156 19.7388 6.50781 19.8653 6.14844 19.976C5.79688 20.0867 5.28906 20.3003 4.53125 20.7194H0L0 0ZM3.82812 17.0816H9.14062V14.7092H3.82812V17.0816ZM25 16.1327H40V20.7194L35.4297 20.7115L35.0391 20.4821C34.8281 20.3635 34.4531 20.1816 34.2188 20.0946C33.9844 20.0077 33.6328 19.8969 33.4375 19.8495C33.2422 19.7941 32.7891 19.723 32.4219 19.6913C32.0391 19.6518 31.4688 19.6518 31.0703 19.6992C30.6953 19.7388 30.1016 19.8653 29.75 19.976C29.3906 20.0867 28.8906 20.3003 28.1641 20.7194H25V16.1327ZM0 23.0918H1.13281C1.75781 23.0918 2.26562 23.0997 2.26562 23.1077C2.26562 23.1235 2.16406 23.3607 2.03906 23.6454C1.90625 23.9301 1.72656 24.4441 1.63281 24.7921C1.50781 25.2587 1.45312 25.6936 1.42188 27.4809L0 27.5204L0 23.0918ZM40 23.0918V27.5204L38.5859 27.4809L38.5625 26.4133C38.5391 25.5434 38.5 25.2191 38.3281 24.6497C38.2188 24.2702 38.0391 23.7878 37.9297 23.5663C37.8203 23.3449 37.7344 23.1551 37.7344 23.1314C37.7344 23.1077 38.2422 23.0918 40 23.0918ZM9.14062 0H13.125V3.16327C13.125 5.21939 13.1016 6.32653 13.0469 6.32653C13 6.32653 12.5547 6.02602 11.1328 4.99005L10.8984 5.15612C10.7656 5.25102 10.3359 5.57525 9.94531 5.86786C9.54688 6.16046 9.20312 6.38189 9.17969 6.34235C9.15625 6.31071 9.14062 4.87143 9.14062 3.13954V0ZM25 4.42857L31.2891 4.44439L33.6016 7.14898C34.8828 8.63571 36.6797 10.7314 39.2969 13.7602L25 13.7681V4.42857ZM8.4375 22.0242C8.75781 22.048 9.21094 22.1191 9.45312 22.1824C9.6875 22.2536 10.1094 22.4355 10.3906 22.5936C10.6641 22.7518 11.1172 23.0997 11.3828 23.3765C11.7344 23.7324 11.9609 24.0645 12.1797 24.5311C12.3516 24.887 12.5312 25.4168 12.5859 25.7015C12.6406 26.0099 12.6562 26.4607 12.6328 26.8403C12.6016 27.1883 12.5156 27.6865 12.4219 27.9474C12.3359 28.2163 12.125 28.6513 11.9531 28.9202C11.7812 29.189 11.4531 29.5923 11.2266 29.8138C11 30.0273 10.5859 30.3278 10.3125 30.4781C10.0312 30.6283 9.59375 30.8023 9.33594 30.8735C9.07812 30.9446 8.5625 31 8.20312 31C7.83594 31 7.32812 30.9446 7.07031 30.8735C6.8125 30.8023 6.36719 30.6283 6.09375 30.4781C5.8125 30.3278 5.39844 30.0273 5.17188 29.8138C4.94531 29.5923 4.625 29.189 4.44531 28.9202C4.27344 28.6513 4.0625 28.2163 3.97656 27.9474C3.89062 27.6865 3.79688 27.1883 3.77344 26.8403C3.74219 26.4607 3.76562 26.0099 3.82031 25.6936C3.875 25.4168 4.05469 24.887 4.21875 24.5311C4.44531 24.0645 4.67188 23.7324 5.01562 23.3765C5.28906 23.0997 5.73438 22.7518 6.01562 22.5936C6.28906 22.4355 6.71094 22.2536 6.95312 22.1903C7.1875 22.1191 7.48438 22.048 7.61719 22.0321C7.74219 22.0084 8.10938 22.0084 8.4375 22.0242ZM32.0312 22.0242C32.3516 22.0401 32.8047 22.1191 33.0469 22.1824C33.2812 22.2536 33.7031 22.4355 33.9844 22.5936C34.2578 22.7518 34.7031 23.0918 34.9609 23.3607C35.2188 23.6217 35.5547 24.0883 35.7188 24.3967C35.875 24.6972 36.0625 25.1954 36.1328 25.4959C36.2266 25.8913 36.25 26.263 36.2266 26.7691C36.2031 27.2041 36.125 27.6548 36.0234 27.9474C35.9297 28.2163 35.7422 28.6196 35.6016 28.849C35.4609 29.0862 35.1406 29.4895 34.8828 29.7426C34.625 30.0036 34.1797 30.3278 33.9062 30.4781C33.625 30.6204 33.2031 30.8023 32.9688 30.8735C32.7109 30.9446 32.25 31 31.8359 31C31.4453 31 30.9219 30.9446 30.6641 30.8735C30.4062 30.8023 29.9609 30.6283 29.6875 30.4781C29.4062 30.3278 28.9844 30.0194 28.75 29.7901C28.5234 29.5607 28.1953 29.1653 28.0312 28.8964C27.8672 28.6355 27.6562 28.2163 27.5703 27.9474C27.4844 27.6865 27.3906 27.212 27.3672 26.8798C27.3438 26.5477 27.3594 26.0495 27.4141 25.7332C27.4688 25.4247 27.6406 24.9028 27.8125 24.5311C28.0234 24.0883 28.2656 23.7324 28.5703 23.4161C28.8203 23.163 29.1797 22.8546 29.375 22.7281C29.5625 22.6094 29.9297 22.4275 30.1719 22.3247C30.4219 22.2219 30.8047 22.1033 31.0312 22.0638C31.2578 22.0242 31.7031 22.0084 32.0312 22.0242ZM20 23.0839C23.2188 23.0839 25.8594 23.0997 25.8594 23.1077C25.8594 23.1156 25.7578 23.3607 25.625 23.6375C25.5 23.9222 25.3125 24.4441 25.2188 24.7842C25.1016 25.2508 25.0469 25.6936 25.0156 27.473H14.9844L14.9609 26.4449C14.9453 25.6936 14.8984 25.2508 14.7734 24.7842C14.6797 24.4441 14.5 23.9222 14.3672 23.6375C14.2422 23.3607 14.1328 23.1156 14.1328 23.1077C14.1406 23.0997 16.7734 23.0839 20 23.0839Z" fill="#235154"/>
</svg>
